<?xml version="1.0" encoding="UTF-8"?>
<svg version="1.1" xmlns="http://www.w3.org/2000/svg" width="344" height="390">
<path d="M0 0 C113.52 0 227.04 0 344 0 C342.85150237 20.67295732 342.85150237 20.67295732 341.94702148 30.51342773 C341.84545116 31.64646552 341.74388084 32.77950331 341.63923264 33.94687557 C341.30272928 37.69271369 340.96189726 41.43814462 340.62109375 45.18359375 C340.37405794 47.92064747 340.12799669 50.65778858 339.88191223 53.39492798 C339.35023129 59.30350851 338.81642086 65.21189336 338.28112793 71.12014771 C337.42565866 80.56282269 336.57424103 90.00586064 335.72363281 99.44897461 C335.57616958 101.08591882 335.42870546 102.72286296 335.28124046 104.35980701 C335.05625172 106.8573136 334.83126728 109.35482056 334.60630262 111.85232931 C334.14312446 116.99412006 333.67958538 122.13587813 333.21579254 127.27761346 C330.75833252 154.52294415 328.32036687 181.76998784 325.89102483 209.01783919 C325.52252588 213.15065977 325.15389253 217.28346835 324.78525311 221.4162764 C323.24681376 238.66373358 321.7085284 255.91120435 320.17282104 273.15890503 C319.40325157 281.80196552 318.63270551 290.44493831 317.86097342 299.08780599 C317.3877925 304.38764775 316.91579619 309.68759309 316.44474274 314.98762435 C316.15675789 318.22446096 315.86758639 321.46119072 315.57806695 324.6978904 C315.44559997 326.18144117 315.31361346 327.66503494 315.1821593 329.1486758 C314.56460672 336.11587741 313.93785728 343.06786863 313 350 C301.13609362 353.80103732 289.19393997 357.242492 277.1875 360.5625 C275.30656209 361.08484098 273.42570444 361.60747105 271.54492188 362.13037109 C267.64534718 363.21423781 263.74543614 364.29688034 259.84521484 365.37841797 C251.45959493 367.70412881 243.07616837 370.03768858 234.69366455 372.37460327 C232.01144778 373.1218109 229.3287427 373.86724604 226.64599609 374.61254883 C218.01489573 377.01427178 209.39744036 379.45414806 200.80078125 381.9765625 C199.18166903 382.44915332 197.56252901 382.92164892 195.94335938 383.39404297 C192.94488297 384.26920943 189.95093336 385.15798373 186.95898438 386.05517578 C185.61473382 386.44875654 184.27034091 386.84185152 182.92578125 387.234375 C181.77505127 387.57694336 180.62432129 387.91951172 179.4387207 388.27246094 C170.60605357 390.14121124 163.59768172 388.0657964 155.08203125 385.58984375 C153.81572372 385.23078445 152.5494162 384.87172516 151.24473572 384.50178528 C147.81008003 383.52777947 144.37917881 382.54112341 140.94883728 381.55204773 C137.36224716 380.52031419 133.77230813 379.50037405 130.18261719 378.47949219 C125.04462552 377.01718412 119.90772453 375.55115195 114.7722187 374.08013725 C106.08189466 371.5908871 97.38507627 369.12575251 88.68359375 366.67578125 C86.30167453 366.00464541 83.91975717 365.33350299 81.5378418 364.66235352 C80.40228851 364.34243439 79.26673523 364.02251526 78.09677124 363.69290161 C76.44011948 363.22616531 76.44011948 363.22616531 74.75 362.75 C73.68045074 362.44875214 72.61090149 362.14750427 71.50894165 361.83712769 C68.43775927 360.97127971 65.36723622 360.10312977 62.296875 359.234375 C61.44391342 358.99435257 60.59095184 358.75433014 59.71214294 358.5070343 C50.10796657 355.78523567 40.55723308 352.88133131 31 350 C30.58446781 345.37858116 30.16894153 340.7571618 29.75341797 336.13574219 C29.68737991 335.40127416 29.62134186 334.66680614 29.55330265 333.91008151 C28.7121175 324.55447599 27.87098956 315.19886533 27.029953 305.84324646 C26.77897711 303.05142944 26.52800089 300.25961245 26.27702439 297.46779549 C26.10420407 295.54537148 25.93138454 293.6229474 25.75856578 291.70052326 C24.68035321 279.70665648 23.60188139 267.71281305 22.52304965 255.71900195 C21.51124004 244.47023984 20.4996595 233.22145715 19.48828125 221.97265625 C19.39546364 220.94033505 19.30264602 219.90801384 19.20701575 218.84441018 C16.66507436 190.57167247 14.13042553 162.29829421 11.60587645 134.02399814 C11.02934023 127.56714075 10.45235911 121.11032325 9.87506104 114.65353394 C9.79528849 113.76128542 9.71551595 112.8690369 9.63332605 111.94975054 C9.31582259 108.39857471 8.99830927 104.84739975 8.68074226 101.2962296 C7.75874521 90.98582672 6.83843847 80.67527625 5.92090458 70.36447519 C5.34852404 63.9338445 4.77421821 57.50338762 4.19838864 51.07306486 C3.8679572 47.38229022 3.53844931 43.69143905 3.21138573 40.0003643 C2.85877718 36.02105476 2.50198411 32.04213165 2.14477539 28.06323242 C1.99145406 26.32099459 1.99145406 26.32099459 1.83503532 24.54356003 C1.73902094 23.48171619 1.64300655 22.41987236 1.54408264 21.32585144 C1.42177576 19.95395298 1.42177576 19.95395298 1.29699802 18.55433941 C1.00191613 16.01647968 0.50106829 13.50534147 0 11 C0 7.37 0 3.74 0 0 Z " fill="#D6BA33" transform="translate(0,0)"/>
<path d="M0 0 C46.2 0 92.4 0 140 0 C138.85135569 26.41881909 138.85135569 26.41881909 137.80078125 37.58203125 C137.68524399 38.85824844 137.56970673 40.13446564 137.45066833 41.44935608 C137.14140925 44.86450132 136.82569292 48.27901863 136.5085907 51.6934433 C136.17328655 55.31691202 135.84429682 58.94095455 135.51464844 62.56494141 C134.96219968 68.63065378 134.40629283 74.69604005 133.84814453 80.76123047 C133.07264954 89.19148449 132.30692916 97.62260549 131.54443932 106.05404472 C131.20720927 109.78304188 130.86959583 113.51200433 130.53198242 117.2409668 C130.43379636 118.32544334 130.43379636 118.32544334 130.33362675 119.4318285 C129.65641746 126.91043727 128.97791493 134.38892644 128.296875 141.8671875 C128.12903 143.71140541 128.12903 143.71140541 127.95779419 145.59288025 C127.45199311 151.1304993 126.93930319 156.66724545 126.40454102 162.20214844 C126.3125946 163.15397003 126.22064819 164.10579163 126.12591553 165.0864563 C125.95916854 166.80234592 125.79085503 168.5180846 125.62042236 170.23361206 C125.02502238 176.33941383 124.6235414 182.44731281 124.34222412 188.57546997 C124.2132529 191.19939965 124.05507623 193.73324953 123.52316284 196.3094635 C122.92611239 199.37999128 122.64352016 202.3998563 122.38330078 205.51733398 C122.27293488 206.82157822 122.16256897 208.12582245 122.04885864 209.46958923 C121.96269476 210.51196904 121.96269476 210.51196904 121.87479019 211.57540703 C121.69171509 213.78960253 121.5050775 216.00347387 121.31759644 218.21730042 C120.91687388 222.95710153 120.52075352 227.69728181 120.125 232.4375 C119.60979386 238.60312114 119.0922733 244.76854051 118.5703125 250.93359375 C118.506446 251.68879681 118.4425795 252.44399986 118.37677765 253.22208786 C117.08051372 268.49828015 115.58403703 283.75104776 114 299 C109.62251561 300.68071665 105.3382927 302.28881049 100.78515625 303.4296875 C99.86089844 303.66494141 98.93664062 303.90019531 97.984375 304.14257812 C97.02015625 304.38427734 96.0559375 304.62597656 95.0625 304.875 C88.17023397 306.63519215 81.30938519 308.44146533 74.5 310.5 C66.9095651 312.78709845 59.25576031 314.7889352 51.58032227 316.76953125 C45.68371884 318.29337807 39.80229401 319.85799037 33.9375 321.5 C33.23560547 321.6961792 32.53371094 321.8923584 31.81054688 322.09448242 C30.34857968 322.50339082 28.88666707 322.9124944 27.42480469 323.32177734 C22.63960874 324.66020609 17.85224388 325.99043871 13.0625 327.3125 C11.63055298 327.71275391 11.63055298 327.71275391 10.16967773 328.12109375 C8.8346521 328.48847656 8.8346521 328.48847656 7.47265625 328.86328125 C6.68125244 329.08282471 5.88984863 329.30236816 5.07446289 329.52856445 C3 330 3 330 0 330 C0 221.1 0 112.2 0 0 Z " fill="#FCD93E" transform="translate(172,31)"/>
<path d="M0 0 C35.97 0 71.94 0 109 0 C109 13.70320319 107.2790667 27.35662189 106 41 C81.91 41 57.82 41 33 41 C33 61.13 33 81.26 33 102 C38.28 101.01 43.56 100.02 49 99 C53.50429732 98.42677212 57.98542377 97.89282707 62.5 97.4375 C64.84125036 97.19109534 67.18239704 96.94370351 69.5234375 96.6953125 C70.63428711 96.57833008 71.74513672 96.46134766 72.88964844 96.34082031 C78.12949517 95.76665814 83.34992109 95.06004502 88.5703125 94.33203125 C92.72778659 93.9295423 96.82730413 93.93098595 101 94 C100.48119947 105.35900099 99.87033993 116.71278971 99.18597412 128.06298828 C99.06646753 130.05874245 98.95137083 132.05475917 98.83642578 134.05078125 C98.41370791 140.94566408 97.83601452 147.78121667 97.03515625 154.640625 C95.83334174 164.94648683 95.0989647 175.27634727 94.375 185.625 C94.23990687 187.51825228 94.10449175 189.41148161 93.96875 191.3046875 C93.64213915 195.86953697 93.31982305 200.43467015 93 205 C81.01550656 208.32528191 69.01412645 211.52384425 56.9375 214.5 C47.72958281 216.77201049 38.59394075 219.19904066 29.49072266 221.85791016 C23.29509034 223.65790182 17.07109618 225.30810128 10.8125 226.875 C9.95591797 227.09043457 9.09933594 227.30586914 8.21679688 227.52783203 C2.25982226 229 2.25982226 229 0 229 C0 215.8 0 202.6 0 189 C3.56282879 187.57486848 6.80234948 186.43354984 10.47265625 185.44921875 C11.52735107 185.1653833 12.5820459 184.88154785 13.66870117 184.58911133 C14.78865479 184.29157959 15.9086084 183.99404785 17.0625 183.6875 C18.79947144 183.22283325 18.79947144 183.22283325 20.5715332 182.7487793 C28.39957793 180.66442696 36.24403581 178.65621285 44.10864258 176.71484375 C51.43219159 174.9057731 58.71939152 172.97458927 66 171 C66.02505615 170.28980713 66.0501123 169.57961426 66.07592773 168.84790039 C66.19298472 165.58596536 66.31520746 162.32424278 66.4375 159.0625 C66.47681641 157.94552734 66.51613281 156.82855469 66.55664062 155.67773438 C66.59853516 154.57880859 66.64042969 153.47988281 66.68359375 152.34765625 C66.72025146 151.34742432 66.75690918 150.34719238 66.79467773 149.31665039 C67.05003571 145.19175373 67.51197808 141.10297783 68 137 C66.93789307 137.19634033 65.87578613 137.39268066 64.78149414 137.5949707 C60.75395147 138.33930952 56.72624154 139.08274 52.69848633 139.82592773 C50.97155419 140.14469922 49.24466455 140.46370109 47.51782227 140.78295898 C38.70209425 142.41264961 29.88501882 144.03458962 21.05859375 145.60546875 C19.81263428 145.8274292 18.5666748 146.04938965 17.28295898 146.27807617 C11.53208693 147.2474274 5.76417926 148.11320319 0 149 C0 99.83 0 50.66 0 0 Z " fill="#FEFEFC" transform="translate(186,75)"/>
<path d="M0 0 C10.89 0 21.78 0 33 0 C33 75.57 33 151.14 33 229 C26.6886624 227.73773248 20.5964724 226.44540547 14.4375 224.6875 C13.67228027 224.4723877 12.90706055 224.25727539 12.11865234 224.03564453 C6.05160724 222.32193764 0.00840888 220.52970496 -6.03442383 218.73291016 C-9.92130638 217.58516054 -13.80999781 216.51680648 -17.75 215.5625 C-25.9488561 213.57150902 -34.03307277 211.16405392 -42.13769531 208.82470703 C-47.0267879 207.41602785 -51.91988907 206.0213989 -56.8125 204.625 C-59.844375 203.75875 -62.87625 202.8925 -66 202 C-66 188.8 -66 175.6 -66 162 C-52.55349501 164.24108417 -52.55349501 164.24108417 -47.8125 165.8125 C-35.97525081 169.61631629 -24.08717141 173.07782669 -12 176 C-8.04 176.99 -4.08 177.98 0 179 C0 119.93 0 60.86 0 0 Z " fill="#EAEAEA" transform="translate(125,75)"/>
</svg>
