<?xml version="1.0" encoding="UTF-8"?>
<svg version="1.1" xmlns="http://www.w3.org/2000/svg" width="900" height="900">
<path d="M0 0 C0.89090332 0.00161133 1.78180664 0.00322266 2.69970703 0.00488281 C12.3118205 0.18435116 18.39071822 3.03068839 26.25 8.375 C27.99174641 9.2458732 29.74312328 10.09756853 31.5 10.9375 C39.38483176 14.80145984 46.74264314 19.49385737 54.20068359 24.11328125 C63.01361585 29.53920857 72.07348052 34.56649329 81.06225586 39.69335938 C86.93070062 43.04231008 92.7831409 46.41742785 98.625 49.8125 C105.6774534 53.90975296 112.76820502 57.93532611 119.875 61.9375 C145.1862133 76.20630265 145.1862133 76.20630265 156.66015625 83.8046875 C158.76599997 85.08153392 160.83710931 86.18655186 163.04296875 87.26953125 C167.32258407 89.37352099 171.40773408 91.74273899 175.5 94.1875 C181.54628665 97.7917703 181.54628665 97.7917703 187.66796875 101.265625 C198.0658849 107.02281532 208.21191916 114.22175413 212.09401894 125.91789246 C214.74264552 136.19038225 214.6739196 146.19162706 214.63818359 156.73828125 C214.64225588 158.76834392 214.64760143 160.79840438 214.65411377 162.82846069 C214.66771494 168.3077838 214.66251859 173.78693621 214.65297651 179.26626205 C214.64534245 185.02036728 214.65243588 190.77445861 214.65713501 196.52856445 C214.66258169 206.18866581 214.65542954 215.84869819 214.64111328 225.50878906 C214.62478891 236.65204426 214.63007819 247.79513475 214.6465925 258.93838596 C214.66023841 268.53284133 214.66211187 278.12724731 214.65427649 287.72170925 C214.64961703 293.44020217 214.64892739 299.15861786 214.65888596 304.87710571 C214.66759863 310.25511958 214.66145556 315.63292258 214.64420319 321.01091385 C214.64026123 322.97600582 214.64133274 324.94111576 214.64799118 326.90620041 C214.69798035 343.16767944 213.97528865 356.23479968 202.9375 369.0625 C196.3448782 374.73522109 188.68235971 378.94622493 181.125 383.1875 C174.74291233 386.79828494 168.39358109 390.44530812 162.125 394.25 C157.27523823 397.18876293 152.37036943 399.9766319 147.375 402.66015625 C136.55462899 408.59783484 125.94746557 414.92798412 115.38720703 421.31396484 C111.07452541 423.91045871 106.69390874 426.33789069 102.2578125 428.71484375 C97.6799772 431.24157103 93.19147372 433.91797272 88.70166016 436.59741211 C84.79840528 438.91616354 80.86080792 441.14473575 76.8671875 443.3046875 C71.45465498 446.23842616 66.15935316 449.34262088 60.875 452.5 C52.45412 457.50509457 43.99013653 462.42536275 35.46801758 467.25610352 C31.82638981 469.32178967 28.19223564 471.38840732 24.62109375 473.57421875 C13.91215787 480.09805325 4.43865123 482.90329768 -8.171875 481.01171875 C-16.7168853 478.90414071 -24.2610928 473.83213548 -31.75 469.375 C-32.73677734 468.79008789 -33.72355469 468.20517578 -34.74023438 467.60253906 C-53.80480197 456.28548723 -53.80480197 456.28548723 -62.64453125 450.60546875 C-66.22691341 448.31021823 -69.81143466 446.20769129 -73.625 444.3125 C-78.16041107 441.90529326 -80.84204609 439.58651946 -83.75 435.375 C-79.49518674 432.33864015 -75.49662528 430.34054831 -70.5625 428.5 C-64.71877484 426.29248257 -59.48635172 423.67899921 -54.21484375 420.28125 C-50.76933355 419.01443801 -49.12616452 420.05900023 -45.75 421.375 C-43.98874241 422.28160751 -42.25388149 423.24105928 -40.546875 424.24609375 C-39.08858276 425.10037964 -39.08858276 425.10037964 -37.60083008 425.97192383 C-36.57755615 426.57931396 -35.55428223 427.1867041 -34.5 427.8125 C-32.91384888 428.74388794 -32.91384888 428.74388794 -31.2956543 429.6940918 C-26.28093991 432.64906302 -21.29252312 435.64043182 -16.34765625 438.7109375 C-15.53393555 439.21568604 -14.72021484 439.72043457 -13.88183594 440.24047852 C-12.3738319 441.1813143 -10.87028884 442.12935168 -9.37207031 443.08569336 C-4.42273975 446.3302099 -4.42273975 446.3302099 1.25 447.375 C3.85964358 446.19069197 6.13464544 444.98347462 8.5625 443.5 C9.99452057 442.65839271 11.42682011 441.81725996 12.859375 440.9765625 C13.58833984 440.5424707 14.31730469 440.10837891 15.06835938 439.66113281 C17.79486044 438.05379087 20.55581005 436.51443432 23.32324219 434.97900391 C29.05228399 431.79948414 34.71186715 428.52521942 40.3125 425.125 C46.53335085 421.35061678 52.84463747 417.75256748 59.1875 414.1875 C67.18533581 409.69085705 75.14372455 405.13450573 83.0625 400.5 C99.34347476 390.97171786 115.6830282 381.54543452 132.0625 372.1875 C132.90603027 371.70539063 133.74956055 371.22328125 134.61865234 370.7265625 C138.95947997 368.24752144 143.3048927 365.77692088 147.65625 363.31640625 C152.87061904 360.36408083 158.06653546 357.38122544 163.25 354.375 C164.06065918 353.90755371 164.87131836 353.44010742 165.70654297 352.95849609 C167.98254609 351.63653976 170.2431192 350.29178255 172.5 348.9375 C173.17393799 348.54868652 173.84787598 348.15987305 174.54223633 347.75927734 C178.08190357 345.66965887 178.08190357 345.66965887 179.92077446 342.15840435 C180.30104084 338.94348031 180.37596405 335.82500966 180.37698364 332.58662415 C180.37932363 331.58101929 180.37932363 331.58101929 180.38171089 330.55509919 C180.38569048 328.3144609 180.38254259 326.07389072 180.37939453 323.83325195 C180.38075029 322.22267619 180.38253121 320.61210074 180.38470459 319.00152588 C180.3892687 314.62157186 180.38749074 310.24164138 180.3843255 305.86168694 C180.38178408 301.2451269 180.38414556 296.6285688 180.38571167 292.01200867 C180.38753345 284.22829837 180.38513234 276.44459753 180.38037109 268.66088867 C180.37498387 259.75292507 180.37665015 250.84498455 180.3821975 241.93702155 C180.38679546 234.23708794 180.38734549 226.53716112 180.38475883 218.83722657 C180.38322501 214.26318277 180.38291907 209.68914963 180.38629532 205.11510658 C180.39170069 195.91967718 180.37126242 186.72548745 180.29000986 177.53037924 C180.25117017 172.67677447 180.26585022 167.82650249 180.31603873 162.97303301 C180.34047463 159.81092467 180.32814296 156.6496633 180.30717444 153.48756254 C180.30521772 152.0113193 180.31868693 150.53496093 180.34889054 149.05902541 C180.75304861 141.02149521 180.75304861 141.02149521 177.28326797 134.18195534 C174.98870501 132.62168487 172.80076353 131.45468726 170.25 130.375 C168.73792969 129.59382813 168.73792969 129.59382813 167.1953125 128.796875 C166.22335937 128.32765625 165.25140625 127.8584375 164.25 127.375 C161.51658807 125.83395832 158.82189863 124.22889049 156.125 122.625 C154.60944671 121.72904535 153.09382137 120.83321257 151.578125 119.9375 C150.84013672 119.50050781 150.10214844 119.06351562 149.34179688 118.61328125 C146.52297058 116.9446203 143.70071744 115.2819652 140.875 113.625 C140.04226563 113.13515625 139.20953125 112.6453125 138.3515625 112.140625 C135.66895445 110.613498 132.96683445 109.14057607 130.25 107.67578125 C123.60469151 104.06237375 117.11602766 100.19320209 110.625 96.3125 C100.58118475 90.31293046 100.58118475 90.31293046 90.39599609 84.55786133 C86.3628879 82.33483411 82.37201573 80.0370847 78.375 77.75 C77.46443848 77.22929932 76.55387695 76.70859863 75.61572266 76.17211914 C65.69385089 70.49277993 55.80387599 64.75877657 45.91601562 59.02050781 C28.23933462 48.75686258 28.23933462 48.75686258 10.46679688 38.66064453 C9.05170072 37.8399511 7.65853006 36.97935457 6.29882812 36.06982422 C3.44893971 34.20397449 1.85221939 33.28766155 -1.578125 33.78515625 C-5.97346782 35.98824064 -10.2506706 38.34000744 -14.5 40.8125 C-15.88131104 41.60841553 -15.88131104 41.60841553 -17.29052734 42.42041016 C-24.13977655 46.38687968 -30.9012378 50.487064 -37.63500977 54.64575195 C-42.33983782 57.54326653 -47.10249191 60.26086994 -51.984375 62.8515625 C-55.4484511 64.75974001 -58.81152793 66.81616053 -62.1875 68.875 C-66.62807534 71.57689316 -71.06709768 74.10602983 -75.75 76.375 C-80.66078115 78.76908648 -85.32114365 81.44169561 -89.98608398 84.28295898 C-96.41723604 88.19539554 -102.90413185 92.01087441 -109.3989563 95.81625366 C-111.25598393 96.90438425 -113.11226271 97.99378384 -114.96850586 99.08325195 C-123.19554285 103.90666729 -131.46244137 108.65634649 -139.75 113.375 C-143.08319247 115.27791848 -146.41482718 117.18355582 -149.74609375 119.08984375 C-152.87989965 120.88117184 -156.01957757 122.66198131 -159.16015625 124.44140625 C-160.10366943 124.97733398 -161.04718262 125.51326172 -162.01928711 126.06542969 C-163.89255883 127.12946468 -165.76703213 128.1913876 -167.64282227 129.25097656 C-168.93724243 129.98719238 -168.93724243 129.98719238 -170.2578125 130.73828125 C-171.02754395 131.17438721 -171.79727539 131.61049316 -172.59033203 132.05981445 C-173.30302246 132.49382568 -174.01571289 132.92783691 -174.75 133.375 C-175.44383915 133.72603696 -176.1376783 134.07707392 -176.85254288 134.43874836 C-179.78000505 137.42606405 -179.30715678 140.71288489 -179.26898193 144.67021179 C-179.28023381 145.95425037 -179.28023381 145.95425037 -179.291713 147.26422912 C-179.31207376 150.14343723 -179.30387116 153.02186412 -179.29589844 155.90112305 C-179.30462889 157.96066064 -179.31511282 160.02019143 -179.32722473 162.07971191 C-179.3551699 167.68064891 -179.35848754 173.28136552 -179.35750484 178.88236213 C-179.36062664 184.73207565 -179.3862295 190.58168882 -179.40948486 196.43135071 C-179.45010472 207.51290561 -179.47039964 218.59440158 -179.48345876 229.67601949 C-179.49930855 242.29017052 -179.53771562 254.90422097 -179.57805204 267.51831377 C-179.66053291 293.47050879 -179.71457384 319.42270112 -179.75 345.375 C-178.58692825 345.82959846 -178.58692825 345.82959846 -177.40036011 346.29338074 C-174.7049532 347.39338372 -172.32389274 348.69295848 -169.8203125 350.17578125 C-168.87099854 350.73483154 -167.92168457 351.29388184 -166.94360352 351.86987305 C-165.93096436 352.46968994 -164.9183252 353.06950684 -163.875 353.6875 C-161.72064664 354.9515347 -159.56568236 356.2145287 -157.41015625 357.4765625 C-156.30945801 358.12141602 -155.20875977 358.76626953 -154.07470703 359.43066406 C-148.83282337 362.49619215 -143.58117236 365.54324193 -138.3125 368.5625 C-137.38518066 369.10237549 -136.45786133 369.64225098 -135.50244141 370.19848633 C-125.00896205 376.18345115 -115.98808457 378.79488827 -103.75 377.375 C-97.49690871 375.23353038 -94.10775606 370.86950991 -90.75 365.375 C-89.49161119 361.59983356 -89.61007079 358.0771579 -89.61869812 354.14466858 C-89.61658241 353.29554868 -89.61446669 352.44642877 -89.61228687 351.57157797 C-89.6062776 348.71575594 -89.60728767 345.85997799 -89.6081543 343.00415039 C-89.60512347 340.96096217 -89.60160223 338.91777462 -89.59762573 336.87458801 C-89.58973135 332.46949755 -89.58458983 328.06441521 -89.58133507 323.65931892 C-89.57543262 316.6975315 -89.55890028 309.7357954 -89.53999329 302.77403259 C-89.53365583 300.3923693 -89.52733021 298.01070598 -89.52101612 295.62904263 C-89.51785031 294.43626953 -89.5146845 293.24349643 -89.51142275 292.0145787 C-89.46930992 275.80277832 -89.43635735 259.59100184 -89.42407227 243.37915039 C-89.4157042 232.44876933 -89.39326102 221.51851521 -89.3547166 210.58819765 C-89.33491535 204.8010726 -89.32256488 199.0141375 -89.32755089 193.22697639 C-89.3321817 187.7858568 -89.31847787 182.34509771 -89.29053879 176.90405083 C-89.28360085 174.90455687 -89.28352823 172.90502583 -89.29073906 170.90553284 C-89.29957508 168.18069346 -89.2840195 165.45705643 -89.26225281 162.73231506 C-89.27491661 161.53888578 -89.27491661 161.53888578 -89.28783625 160.32134682 C-89.23541805 156.78517357 -89.03712621 154.76109845 -86.89829731 151.88501644 C-84.01369208 149.85745661 -82.06678759 149.8582563 -78.55859375 149.84375 C-76.77098633 149.83601563 -76.77098633 149.83601563 -74.94726562 149.828125 C-73.70654297 149.84359375 -72.46582031 149.8590625 -71.1875 149.875 C-69.32061523 149.85179687 -69.32061523 149.85179687 -67.41601562 149.828125 C-65.6303418 149.83585937 -65.6303418 149.83585937 -63.80859375 149.84375 C-62.17361938 149.85051758 -62.17361938 149.85051758 -60.50561523 149.85742188 C-57.75 150.375 -57.75 150.375 -56.10158348 151.88294506 C-54.17218858 155.44037097 -54.33600427 158.81960011 -54.36904907 162.76545715 C-54.36202911 164.04715279 -54.36202911 164.04715279 -54.35486734 165.35474128 C-54.34288379 168.22338624 -54.35238809 171.09155641 -54.36181641 173.96020508 C-54.35775187 176.01525146 -54.35241065 178.07029565 -54.34588623 180.12533569 C-54.33218342 185.71482497 -54.33752604 191.3041485 -54.34702349 196.89364076 C-54.35461596 202.74962961 -54.34757457 208.60560422 -54.34286499 214.46159363 C-54.3374015 224.30832463 -54.34460967 234.15498822 -54.35888672 244.00170898 C-54.37516452 255.35888573 -54.36996261 266.71590049 -54.3534075 278.07307321 C-54.33974992 287.83552961 -54.3378953 297.59793749 -54.34572351 307.36040038 C-54.35038302 313.18528401 -54.3510735 319.01009182 -54.34111404 324.83497047 C-54.33238624 330.32367433 -54.33857165 335.81217193 -54.35579681 341.30085373 C-54.35973295 343.305412 -54.35867749 345.30998791 -54.35200882 347.31453896 C-54.29311813 366.83115516 -55.80922364 385.34994104 -69.75 400.375 C-77.04483315 406.09588336 -84.65543427 409.679403 -93.75 411.375 C-95.13251953 411.64570312 -95.13251953 411.64570312 -96.54296875 411.921875 C-120.13365418 415.25502909 -140.72154342 407.33259443 -160.38378906 394.92675781 C-168.10178716 390.06971342 -176.06443145 385.68140364 -184.07202148 381.32202148 C-195.89541628 374.81193978 -206.14214351 367.71305187 -211.7122345 354.97940445 C-214.03188759 346.92270194 -213.42222948 338.38976662 -213.36523438 330.07373047 C-213.36873944 327.91924605 -213.37440236 325.76476423 -213.38204956 323.61029053 C-213.39624979 317.7839038 -213.37928341 311.95799173 -213.35576439 306.13165045 C-213.33559993 300.02332617 -213.34153777 293.91502053 -213.34387207 287.80667114 C-213.34381857 277.55283822 -213.32410073 267.29919 -213.29199219 257.04541016 C-213.25508288 245.20115151 -213.24632014 233.3571345 -213.2532897 221.51282585 C-213.25960037 210.10205512 -213.24883117 198.69136699 -213.22932434 187.28061295 C-213.22116306 182.43154852 -213.21843845 177.58252638 -213.22001648 172.73345566 C-213.22089707 167.02222725 -213.20663188 161.31122756 -213.18078995 155.60005951 C-213.1736442 153.50751733 -213.17153683 151.4149508 -213.17490768 149.32239914 C-213.17863864 146.4597938 -213.16381891 143.59785004 -213.14440918 140.73532104 C-213.14973711 139.91303131 -213.15506503 139.09074157 -213.16055441 138.24353397 C-213.03865983 127.77928467 -209.04827669 119.33072708 -202.14453125 111.5703125 C-196.87840453 106.52506086 -190.5334996 103.30018161 -184.18359375 99.83984375 C-179.5055914 97.27482438 -174.97237063 94.49579799 -170.4375 91.6875 C-164.99306274 88.32896669 -159.53381441 85.08760324 -153.88671875 82.078125 C-141.75517655 75.49113571 -129.85899795 68.45188437 -117.92041016 61.52294922 C-112.00406199 58.09213108 -106.06718927 54.69832286 -100.125 51.3125 C-92.49013107 46.9590357 -84.8964497 42.54210591 -77.328125 38.07421875 C-64.43085211 30.46228755 -51.5252783 22.85934558 -38.43579102 15.58154297 C-34.99533402 13.66210637 -31.58928147 11.69630007 -28.20703125 9.67578125 C-27.44253662 9.21977539 -26.67804199 8.76376953 -25.89038086 8.29394531 C-24.42581577 7.4170056 -22.96416741 6.535168 -21.50610352 5.64746094 C-14.31461411 1.34076223 -8.34331593 -0.01556298 0 0 Z " fill="#82BD05" transform="translate(451.75,333.625)"/>
<path d="M0 0 C1.06139191 -0.00151062 1.06139191 -0.00151062 2.14422607 -0.00305176 C29.50864221 0.02321487 55.47201088 4.50528255 75.6875 24.25 C84.83131053 34.67683533 88.76976874 49.46763887 89.05078125 63.0859375 C88.58273304 65.87409567 87.95210181 66.56875395 85.6875 68.25 C82.82421875 68.63818359 82.82421875 68.63818359 79.375 68.6484375 C78.13492188 68.65230469 76.89484375 68.65617188 75.6171875 68.66015625 C73.67199219 68.64275391 73.67199219 68.64275391 71.6875 68.625 C70.39070312 68.63660156 69.09390625 68.64820313 67.7578125 68.66015625 C66.51773438 68.65628906 65.27765625 68.65242187 64 68.6484375 C62.86175781 68.64505371 61.72351563 68.64166992 60.55078125 68.63818359 C57.6875 68.25 57.6875 68.25 55.86645508 66.91723633 C54.0462953 64.34323113 53.31751425 61.55846454 52.375 58.5625 C49.12474964 48.93299922 44.85921879 42.8358594 35.6875 38.25 C18.82294392 30.39925838 -5.47463129 31.0638335 -23.3125 35.25 C-24.12332031 35.42144531 -24.93414062 35.59289062 -25.76953125 35.76953125 C-32.26143923 37.48374886 -36.88418985 41.28002959 -41.3125 46.25 C-43.71350906 50.8599374 -43.71723934 55.15028428 -43.3125 60.25 C-41.39852145 64.3513826 -39.13805448 67.42034116 -34.97460938 69.3125 C-26.37619201 72.17268041 -17.72764447 73.80378789 -8.8125 75.25 C-7.26627056 75.50843268 -5.72012913 75.76739236 -4.17407227 76.02685547 C5.44783618 77.62728751 15.08684045 79.04600591 24.75 80.375 C74.11440534 87.20706993 74.11440534 87.20706993 88.25 105.6875 C96.63830109 118.34321191 97.85577805 133.75161704 95.29199219 148.52978516 C91.67454967 163.9963455 82.91941962 174.97257363 69.6875 183.25 C59.35749887 189.11587153 48.25256835 191.94442367 36.6875 194.25 C35.43259766 194.53037109 35.43259766 194.53037109 34.15234375 194.81640625 C22.60293248 196.84807765 10.37989099 196.47947431 -1.3125 196.25 C-1.9832959 196.24274902 -2.6540918 196.23549805 -3.34521484 196.22802734 C-26.7802016 195.89218469 -52.56536388 190.34556898 -69.96484375 173.71484375 C-75.38848184 168.05227887 -79.43134162 162.54659215 -82.3125 155.25 C-82.78816406 154.15365234 -82.78816406 154.15365234 -83.2734375 153.03515625 C-85.3999925 147.32857518 -85.58880821 141.77326323 -85.625 135.75 C-85.63055908 134.94755859 -85.63611816 134.14511719 -85.6418457 133.31835938 C-85.56926278 127.50676278 -85.56926278 127.50676278 -83.3125 125.25 C-80.45507813 124.99121094 -80.45507813 124.99121094 -76.84375 124.984375 C-75.55082031 124.98179687 -74.25789063 124.97921875 -72.92578125 124.9765625 C-72.25111816 124.98075195 -71.57645508 124.98494141 -70.88134766 124.98925781 C-68.82033843 124.9999593 -66.76020081 124.98936057 -64.69921875 124.9765625 C-63.40628906 124.97914063 -62.11335938 124.98171875 -60.78125 124.984375 C-59.58951172 124.98663086 -58.39777344 124.98888672 -57.16992188 124.99121094 C-54.3125 125.25 -54.3125 125.25 -52.3125 127.25 C-51.79015608 129.27623519 -51.34237161 131.32206279 -50.9375 133.375 C-48.60219307 143.78085292 -45.19307535 149.97643813 -36.3125 156.25 C-21.0154022 164.47006209 -2.16264977 163.59687884 14.6875 163.25 C15.3489502 163.24274902 16.01040039 163.23549805 16.69189453 163.22802734 C29.0313221 163.05024316 43.49727313 161.34128132 53.203125 152.90234375 C57.21286773 148.43886697 58.89750068 144.18438209 59.125 138.1875 C58.86089322 133.52637226 58.40665411 130.17766704 55.6875 126.25 C47.12179726 120.14215354 36.79376887 118.2820916 26.6875 116.25 C25.89923828 116.07919922 25.11097656 115.90839844 24.29882812 115.73242188 C18.35621804 114.47130415 12.48788884 113.74780251 6.4375 113.25 C-1.86184748 112.50462793 -10.08918962 111.62343104 -18.3125 110.25 C-19.1065625 110.11867676 -19.900625 109.98735352 -20.71875 109.85205078 C-39.58152084 106.67667734 -59.33497469 102.55792112 -72.3125 87.25 C-80.47393125 74.22344689 -82.54733026 59.08291764 -79.1875 44.0625 C-75.29896466 30.56165066 -68.62157117 20.23036914 -56.52734375 12.98046875 C-38.26748449 3.15165022 -20.67212718 0.02043472 0 0 Z " fill="#82BD04" transform="translate(498.3125,478.75)"/>
<path d="M0 0 C2.2890625 1.19921875 2.2890625 1.19921875 4.625 2.6875 C8.14240924 4.86964458 11.67467085 6.96191979 15.3125 8.9375 C16.66988281 9.67613281 16.66988281 9.67613281 18.0546875 10.4296875 C20.17405216 11.55964054 22.30590712 12.66627914 24.4453125 13.7578125 C25.59773437 14.35335937 26.75015625 14.94890625 27.9375 15.5625 C28.99839844 16.10003906 30.05929687 16.63757813 31.15234375 17.19140625 C34.33864732 19.21508054 35.9392499 20.83829448 38 24 C38.50615788 27.38116455 38.50615788 27.38116455 38.5146637 31.32519531 C38.52160922 32.05281193 38.52855475 32.78042854 38.53571075 33.53009415 C38.55397652 35.96308482 38.54371828 38.39509993 38.53344727 40.828125 C38.54050594 42.57442962 38.54925074 44.32072812 38.55955505 46.0670166 C38.58206335 50.8066747 38.57910617 55.5459991 38.57023358 60.28569031 C38.56512527 64.24213556 38.5724149 68.19851803 38.57970566 72.15495682 C38.59670886 81.48747491 38.59313411 90.81982951 38.57641602 100.15234375 C38.55948801 109.78245129 38.5753376 119.41210578 38.6076389 129.04216385 C38.63432049 137.30982443 38.64161485 145.57734386 38.63312382 153.84504318 C38.62819117 158.78323167 38.63042862 163.72114743 38.65091133 168.65930176 C38.66924639 173.30192103 38.66333659 177.94388752 38.63871193 182.58647156 C38.63369738 184.2904579 38.63721052 185.99449379 38.64986038 187.69844055 C38.66576405 190.02464826 38.65086902 192.34869917 38.62818909 194.67480469 C38.62760278 195.97633484 38.62701647 197.27786499 38.62641239 198.61883545 C37.84176969 202.85407431 36.33652141 204.36486794 33 207 C32.34 207 31.68 207 31 207 C31 207.66 31 208.32 31 209 C29.85402344 209.59167969 28.70804688 210.18335938 27.52734375 210.79296875 C25.99725171 211.59086951 24.46731188 212.38906221 22.9375 213.1875 C22.18533203 213.57486328 21.43316406 213.96222656 20.65820312 214.36132812 C16.38082176 216.60186122 12.46549158 219.01751733 8.58422852 221.88598633 C6.34608007 223.45982996 3.97693769 224.5969428 1.5 225.75 C-6.92421087 229.83993844 -14.81094064 234.79886197 -22.7734375 239.7109375 C-26.36683971 241.79132825 -29.12396083 242.49873576 -33.21875 241.41015625 C-38.96269422 239.29253124 -43.91587834 236.29065254 -49.0078125 232.9296875 C-55.90335993 228.48268955 -63.1428284 224.5824079 -70.31640625 220.60546875 C-75.16574938 217.91275853 -79.99724973 215.19070813 -84.8125 212.4375 C-85.64458984 211.96892578 -86.47667969 211.50035156 -87.33398438 211.01757812 C-88.13771484 210.55673828 -88.94144531 210.09589844 -89.76953125 209.62109375 C-90.48729736 209.2130249 -91.20506348 208.80495605 -91.94458008 208.38452148 C-94.40576867 206.72667607 -96.12848091 205.33020568 -98 203 C-98.42053329 200.39321019 -98.5978316 198.19750321 -98.59692383 195.58862305 C-98.61948494 194.47807556 -98.61948494 194.47807556 -98.64250183 193.34509277 C-98.68555256 190.90038999 -98.69827329 188.45677019 -98.70703125 186.01171875 C-98.72242953 184.30784199 -98.73827986 182.60396925 -98.75456238 180.90010071 C-98.78302052 177.32824738 -98.79443228 173.75677522 -98.79614258 170.18481445 C-98.8013206 165.61739346 -98.86626304 161.05296769 -98.94643116 156.48633099 C-98.99853685 152.96623185 -99.00970392 149.44685045 -99.00964928 145.92640114 C-99.01619766 144.24345598 -99.03741401 142.56049924 -99.07383156 140.87793541 C-99.33362866 127.75004356 -99.33362866 127.75004356 -96.05557251 123.44844055 C-93.7730123 121.63928158 -91.60243891 120.29394009 -89 119 C-87.78318923 118.26187285 -86.56891872 117.51950734 -85.359375 116.76953125 C-84.16023948 116.10988275 -82.95695184 115.45773591 -81.75 114.8125 C-80.35756781 114.04779401 -78.96566887 113.2821165 -77.57421875 112.515625 C-76.83864746 112.11279297 -76.10307617 111.70996094 -75.34521484 111.29492188 C-71.05917398 108.9283634 -66.81292098 106.49225176 -62.5625 104.0625 C-61.2331543 103.30851929 -61.2331543 103.30851929 -59.87695312 102.53930664 C-55.60029689 100.10494444 -51.36657264 97.62939466 -47.19921875 95.01171875 C-46.06987915 94.31260376 -46.06987915 94.31260376 -44.91772461 93.59936523 C-43.52376609 92.73165392 -42.13942596 91.84818979 -40.76782227 90.94555664 C-35.87357784 87.91960253 -31.71917051 87.10329384 -26 88 C-22.890625 89.2421875 -22.890625 89.2421875 -20.25 90.875 C-16.78804778 92.97039214 -13.8182939 94.47268244 -10 96 C-9.67 64.65 -9.34 33.3 -9 1 C-4.77281984 -1.11359008 -4.22761968 -1.32031815 0 0 Z M-33.7734375 140.80859375 C-34.63195312 141.34613281 -35.49046875 141.88367188 -36.375 142.4375 C-37.30828125 143.00726563 -38.2415625 143.57703125 -39.203125 144.1640625 C-40.12609375 144.76992187 -41.0490625 145.37578125 -42 146 C-42.88171875 146.56460938 -43.7634375 147.12921875 -44.671875 147.7109375 C-48.52656987 150.1106603 -48.52656987 150.1106603 -52 153 C-52.28006266 156.78424065 -52.23180637 160.58162732 -52.25 164.375 C-52.270625 165.44234375 -52.29125 166.5096875 -52.3125 167.609375 C-52.31765625 168.63289063 -52.3228125 169.65640625 -52.328125 170.7109375 C-52.3374707 171.65243652 -52.34681641 172.59393555 -52.35644531 173.56396484 C-51.92978144 176.47989092 -51.30760266 177.23177266 -49 179 C-47.80954693 179.78475678 -46.58946998 180.5259054 -45.34765625 181.2265625 C-44.65349609 181.6184375 -43.95933594 182.0103125 -43.24414062 182.4140625 C-42.52419922 182.81367188 -41.80425781 183.21328125 -41.0625 183.625 C-40.34642578 184.03234375 -39.63035156 184.4396875 -38.89257812 184.859375 C-34.18087769 187.53304039 -34.18087769 187.53304039 -29 189 C-26.68017189 188.0219535 -26.68017189 188.0219535 -24.375 186.4375 C-19 183 -19 183 -16.48950195 181.87866211 C-11.05834062 179.26095275 -11.05834062 179.26095275 -7.95410156 174.31958008 C-7.46371421 171.04553873 -7.35863523 167.99692614 -7.4375 164.6875 C-7.449021 163.56134277 -7.46054199 162.43518555 -7.47241211 161.27490234 C-7.79498312 156.08717027 -8.11638658 152.04696952 -12.1328125 148.46484375 C-15.23867459 146.38277024 -18.50486012 144.90628575 -22.03710938 143.69799805 C-24.01405111 142.99500347 -25.79147503 142.10120383 -27.66015625 141.15234375 C-30.88984797 139.67814397 -30.88984797 139.67814397 -33.7734375 140.80859375 Z " fill="#363636" transform="translate(571,92)"/>
<path d="M0 0 C2.4204887 1.32751609 4.77693602 2.74132519 7.140625 4.16796875 C8.47424037 4.95095873 9.80897265 5.73204801 11.14453125 6.51171875 C17.33343303 10.12893227 23.50471915 13.77395911 29.640625 17.48046875 C34.82307669 20.6022163 40.113054 23.51420993 45.421875 26.4140625 C59.68305416 34.25282707 59.68305416 34.25282707 61.140625 37.16796875 C61.25927023 39.55175447 61.3188906 41.90729361 61.33349609 44.29223633 C61.34576233 45.39253426 61.34576233 45.39253426 61.35827637 46.51506042 C61.38313022 48.94753196 61.3996463 51.37994513 61.4140625 53.8125 C61.41938618 54.64289984 61.42470985 55.47329967 61.43019485 56.32886314 C61.45692648 60.7241969 61.47630126 65.11950226 61.49072266 69.51489258 C61.50737035 74.05473775 61.55214841 78.59385694 61.6030941 83.13342762 C61.636751 86.62416924 61.64829832 90.11473822 61.65394974 93.60562706 C61.66066663 95.2789941 61.67590023 96.9523496 61.69984055 98.62555885 C61.73146368 100.96948005 61.73153426 103.31143904 61.72412109 105.65551758 C61.74052643 106.34505524 61.75693176 107.0345929 61.77383423 107.74502563 C61.7242568 111.5799837 61.23252551 113.05848775 58.73135376 116.03813171 C52.33792722 121.29416502 45.52573361 125.0637555 38.09765625 128.6796875 C34.60252532 130.43879567 31.30036778 132.42141714 27.96875 134.46875 C24.40126912 136.612195 20.7743718 138.63952717 17.140625 140.66796875 C11.69023425 143.71347508 6.29150757 146.82166752 0.9609375 150.07421875 C-3.00256723 152.45572374 -6.30713477 153.02750125 -10.859375 152.16796875 C-15.32389627 150.16826662 -19.43943699 147.65403109 -23.609375 145.10546875 C-24.7128125 144.44869141 -25.81625 143.79191406 -26.953125 143.11523438 C-29.17010113 141.79467641 -31.38326069 140.46768977 -33.5925293 139.13427734 C-40.70128416 134.85553049 -47.86357298 130.67961081 -55.14819336 126.70751953 C-72.92360847 116.97526834 -72.92360847 116.97526834 -74.859375 111.16796875 C-74.96438686 108.87954533 -75.0080675 106.58816107 -75.02050781 104.29736328 C-75.02547272 103.60269958 -75.03043762 102.90803589 -75.03555298 102.19232178 C-75.05015329 99.89513151 -75.05697284 97.59801029 -75.0625 95.30078125 C-75.06825299 93.70278929 -75.07401071 92.10479735 -75.07977295 90.50680542 C-75.09027672 87.15606363 -75.09612354 83.80534578 -75.09960938 80.45458984 C-75.10509433 76.16495159 -75.1291248 71.87563071 -75.15758133 67.586092 C-75.17622145 64.28493326 -75.18141402 60.9838508 -75.18294525 57.68264389 C-75.18596897 56.1014215 -75.19398804 54.52020036 -75.20713043 52.93902969 C-75.22422097 50.72489637 -75.22230384 48.51153614 -75.21582031 46.29736328 C-75.21946594 45.03844269 -75.22311157 43.77952209 -75.22686768 42.48245239 C-74.73837636 38.07665986 -73.31454493 35.40590472 -69.94921875 32.54296875 C-65.25637369 29.54499877 -60.51565912 26.92504171 -55.50390625 24.5 C-51.62795463 22.54771122 -47.92505593 20.32670291 -44.19140625 18.1171875 C-40.46286153 15.93601069 -36.69564936 13.83195367 -32.921875 11.73046875 C-26.64199424 8.22870444 -20.5103155 4.54196374 -14.43359375 0.69921875 C-9.45191012 -2.26408927 -5.37539651 -2.40537701 0 0 Z " fill="#80BD02" transform="translate(367.859375,179.83203125)"/>
<path d="M0 0 C1.9471952 0.97187442 3.8377915 1.98797286 5.70703125 3.1015625 C5.70703125 3.7615625 5.70703125 4.4215625 5.70703125 5.1015625 C6.97546875 5.47667969 6.97546875 5.47667969 8.26953125 5.859375 C11.99635511 7.20611362 15.30476094 8.97828584 18.70703125 10.9765625 C19.59261719 11.48509766 19.59261719 11.48509766 20.49609375 12.00390625 C23.34536667 13.65447624 26.10285282 15.36577216 28.84375 17.1953125 C31.35575225 18.86769599 33.85260725 20.32201125 36.51953125 21.7265625 C41.63887953 24.49836433 46.7199289 27.32999026 51.76953125 30.2265625 C52.89548706 30.85618896 52.89548706 30.85618896 54.04418945 31.49853516 C54.74890381 31.9063623 55.45361816 32.31418945 56.1796875 32.734375 C56.81140869 33.09418457 57.44312988 33.45399414 58.09399414 33.82470703 C60.55625133 35.7737921 61.56825388 37.99794301 61.95871353 41.10305214 C61.95946758 41.81207869 61.96022163 42.52110523 61.96099854 43.25161743 C61.96945801 44.47978935 61.96945801 44.47978935 61.97808838 45.73277283 C61.97201569 47.06702049 61.97201569 47.06702049 61.96582031 48.42822266 C61.97107727 49.84342445 61.97107727 49.84342445 61.97644043 51.28721619 C61.98524178 54.405094 61.97941511 57.52274489 61.97265625 60.640625 C61.97400313 62.80488122 61.97594386 64.96913715 61.97845459 67.13339233 C61.9814035 71.66773359 61.9771148 76.20199603 61.96777344 80.73632812 C61.95636547 86.55856899 61.96294841 92.38062574 61.97491837 98.20285988 C61.98213161 102.67055662 61.97985174 107.13820941 61.97466278 111.60590744 C61.97332551 113.75339149 61.97497671 115.90087948 61.97962189 118.04835892 C61.98467979 121.04357798 61.97698786 124.03849495 61.96582031 127.03369141 C61.96986877 127.92723831 61.97391724 128.82078522 61.97808838 129.7414093 C61.93556172 135.87303203 61.93556172 135.87303203 59.70703125 138.1015625 C54.4352455 138.80753672 51.02344909 137.00767329 46.64453125 134.3515625 C45.2451426 133.52935034 43.8453822 132.70777068 42.4453125 131.88671875 C41.31730225 131.21793701 41.31730225 131.21793701 40.16650391 130.53564453 C37.48686722 128.97318812 34.77920823 127.46967424 32.0625 125.97265625 C31.11189697 125.44446289 30.16129395 124.91626953 29.18188477 124.37207031 C27.30468897 123.32934457 25.42373404 122.2933534 23.53881836 121.26464844 C22.67909424 120.78157227 21.81937012 120.29849609 20.93359375 119.80078125 C20.16611816 119.37627686 19.39864258 118.95177246 18.60791016 118.5144043 C16.36545487 116.84768342 15.75166591 115.67660222 14.70703125 113.1015625 C14.45547485 110.82519531 14.45547485 110.82519531 14.45166016 108.3046875 C14.44470123 107.3569043 14.43774231 106.40912109 14.43057251 105.43261719 C14.43156952 104.41586914 14.43256653 103.39912109 14.43359375 102.3515625 C14.41331063 100.19530725 14.39245996 98.03905729 14.37109375 95.8828125 C14.348459 92.48563168 14.33200908 89.08865911 14.32617188 85.69140625 C14.31666918 82.4110764 14.28292465 79.13168323 14.24609375 75.8515625 C14.25366196 74.32644043 14.25366196 74.32644043 14.26138306 72.77050781 C14.27793893 67.30388774 14.27793893 67.30388774 11.87597656 62.56567383 C8.90050271 60.5571285 5.93611666 58.59154097 2.83203125 56.7890625 C2.23261719 56.41716797 1.63320312 56.04527344 1.015625 55.66210938 C-2.01775612 53.89537872 -3.9606822 53.08494817 -7.49609375 53.26171875 C-14.06935999 55.23553473 -20.91408864 58.82260301 -26.29296875 63.1015625 C-27.269013 66.02969526 -27.39231542 67.79007064 -27.33959961 70.82910156 C-27.32110207 72.26639618 -27.32110207 72.26639618 -27.30223083 73.73272705 C-27.28024376 75.28428497 -27.28024376 75.28428497 -27.2578125 76.8671875 C-27.25178194 79.05858787 -27.24861725 81.24999766 -27.24804688 83.44140625 C-27.24632881 86.89667669 -27.23052558 90.34850775 -27.16625977 93.80322266 C-27.10873628 97.13863017 -27.11513056 100.46893604 -27.1328125 103.8046875 C-27.09993637 104.83096252 -27.06706024 105.85723755 -27.03318787 106.91461182 C-27.10691237 111.37733982 -27.22590981 114.02887496 -30.45962524 117.27964783 C-33.00321343 119.08486665 -35.54374693 120.63228101 -38.29296875 122.1015625 C-39.36408905 122.71353737 -39.36408905 122.71353737 -40.45684814 123.33787537 C-42.21275669 124.33188248 -43.99228052 125.2540399 -45.79296875 126.1640625 C-51.05959568 128.89569611 -56.19287962 131.75297544 -61.2421875 134.875 C-65.09484126 137.17925387 -67.70349615 138.58466488 -72.29296875 138.1015625 C-75.41452118 134.98001007 -74.59626831 131.1658886 -74.59936523 126.97363281 C-74.60768875 126.0271286 -74.61601227 125.08062439 -74.62458801 124.10543823 C-74.64876401 120.96347995 -74.65747036 117.82172906 -74.6640625 114.6796875 C-74.6730246 112.49973486 -74.68214636 110.31978287 -74.69142151 108.13983154 C-74.7079358 103.56325789 -74.71561579 98.98675758 -74.71850586 94.41015625 C-74.72388541 88.54766455 -74.76153786 82.6858633 -74.80725002 76.82356644 C-74.83700797 72.3179473 -74.84422919 67.81249445 -74.84523201 63.30678558 C-74.8494385 61.14582921 -74.86188987 58.98487254 -74.88274956 56.82401276 C-74.90963068 53.7978515 -74.90484721 50.77329035 -74.89233398 47.74707031 C-74.90716827 46.85541168 -74.92200256 45.96375305 -74.93728638 45.04507446 C-74.8867991 40.7534738 -74.63305582 37.97450505 -71.86868286 34.58102417 C-69.82613802 32.61480765 -68.30446845 31.18093265 -65.7890625 29.96875 C-65.14042236 29.64342285 -64.49178223 29.3180957 -63.82348633 28.98291016 C-63.13279053 28.65081543 -62.44209473 28.3187207 -61.73046875 27.9765625 C-53.94920132 24.05882984 -46.49988415 19.72118122 -39.07006836 15.17529297 C-34.88138648 12.62065033 -30.69157259 10.28222627 -26.29296875 8.1015625 C-23.48810371 6.3548435 -20.73477059 4.54189988 -17.9765625 2.72265625 C-12.23557585 -0.74533423 -6.46800157 -2.53431067 0 0 Z " fill="#373737" transform="translate(188.29296875,178.8984375)"/>
<path d="M0 0 C0.99 0.61617187 1.98 1.23234375 3 1.8671875 C4.21182905 2.60223974 5.42410547 3.33655472 6.63671875 4.0703125 C7.31524902 4.48861328 7.9937793 4.90691406 8.69287109 5.33789062 C13.35360242 8.17477174 18.09309053 10.87949422 22.8125 13.6171875 C28.62480133 17.00493144 34.43231796 20.40025606 40.21875 23.83203125 C41.39280396 24.5273999 41.39280396 24.5273999 42.59057617 25.23681641 C44.03237843 26.09198052 45.47273683 26.94958546 46.91137695 27.81005859 C49.58980782 29.39866396 52.03514192 30.75390147 55 31.7421875 C55 32.4021875 55 33.0621875 55 33.7421875 C55.639375 34.0515625 56.27875 34.3609375 56.9375 34.6796875 C59 35.7421875 59 35.7421875 60 36.7421875 C60.30922212 40.65075514 60.27847839 44.57289819 60.3125 48.4921875 C60.34150391 49.59046875 60.37050781 50.68875 60.40039062 51.8203125 C60.46290947 59.74577826 60.46290947 59.74577826 58.66796875 63.609375 C54.42153581 67.00403442 49.77139731 69.53335872 45 72.1171875 C42.91744097 73.26336448 40.83540432 74.41049115 38.75390625 75.55859375 C37.75762207 76.10531738 36.76133789 76.65204102 35.73486328 77.21533203 C31.535938 79.5595633 27.4594052 82.08620237 23.40234375 84.66796875 C20.46455205 85.98161544 18.18281522 85.94082473 15 85.7421875 C13.2883021 82.7803403 12.79848187 80.84284135 13.0078125 77.44140625 C13.27065769 70.01707018 13.27065769 70.01707018 12 62.7421875 C8.48341612 59.02665316 4.7261984 57.51751076 0 55.7421875 C-0.87914062 55.19820312 -1.75828125 54.65421875 -2.6640625 54.09375 C-5.47754457 52.46588245 -7.49443961 52.43019367 -10.6796875 52.95703125 C-14.68271437 54.31159085 -18.01583118 56.67730627 -21.484375 59.05078125 C-24 60.7421875 -24 60.7421875 -28 62.7421875 C-28 70.9921875 -28 79.2421875 -28 87.7421875 C-24.803125 89.5571875 -21.60625 91.3721875 -18.3125 93.2421875 C-11.05910311 97.37246217 -3.9013863 101.60455769 3.1796875 106.0234375 C5.83258796 107.64016354 8.5137502 109.14696373 11.25 110.6171875 C13.168222 111.65598725 15.08464835 112.69810483 17 113.7421875 C17.69834961 114.12165527 18.39669922 114.50112305 19.11621094 114.89208984 C21.46292326 116.17837349 23.79452301 117.48925194 26.125 118.8046875 C26.88458008 119.21638184 27.64416016 119.62807617 28.42675781 120.05224609 C33.66087894 123.04368343 33.66087894 123.04368343 35.2421875 126.30078125 C35 128.7421875 35 128.7421875 33.4375 130.86328125 C30.73928644 132.9431542 28.08368831 134.3592086 25 135.8046875 C21.33204039 137.53321346 18.22202495 139.30338206 15 141.7421875 C12.0939435 143.30174275 9.1388563 144.73180359 6.171875 146.171875 C4.15707222 147.16935125 2.1634752 148.21185645 0.203125 149.3125 C-1.07304688 150.02019531 -1.07304688 150.02019531 -2.375 150.7421875 C-3.12523437 151.1753125 -3.87546875 151.6084375 -4.6484375 152.0546875 C-9.28520835 153.41028828 -13.11777465 150.73590437 -17.13671875 148.5703125 C-18.65653172 147.71605158 -20.17335584 146.85645633 -21.6875 145.9921875 C-23.29925067 145.08292818 -24.91122899 144.17407228 -26.5234375 143.265625 C-27.29655273 142.82831055 -28.06966797 142.39099609 -28.86621094 141.94042969 C-31.4961449 140.46357432 -34.15182679 139.03778293 -36.8125 137.6171875 C-41.85948695 134.87827385 -46.71560721 131.86381629 -51.5859375 128.82421875 C-56.25229352 125.97848905 -61.02084455 123.33442254 -65.80859375 120.69921875 C-72.66852419 116.49257842 -72.66852419 116.49257842 -75 113.7421875 C-75.60734912 110.96520143 -75.81594686 109.04575384 -75.76049805 106.27734375 C-75.76940567 105.54337372 -75.77831329 104.80940369 -75.78749084 104.05319214 C-75.80873625 101.63610922 -75.78649156 99.22170388 -75.76171875 96.8046875 C-75.76322171 95.11987028 -75.76665308 93.43505378 -75.77192688 91.75024414 C-75.77625555 88.22278992 -75.75944263 84.69625078 -75.72729492 81.16894531 C-75.68751282 76.65250719 -75.69681482 72.13778466 -75.72152996 67.62129211 C-75.73572776 64.14329013 -75.7256149 60.66568739 -75.70801735 57.18771362 C-75.70217649 55.52278599 -75.70345672 53.85781735 -75.71204185 52.19290161 C-75.7200541 49.86335804 -75.69574464 47.5363094 -75.6628418 45.20703125 C-75.67566696 44.17979446 -75.67566696 44.17979446 -75.68875122 43.13180542 C-75.59737263 39.37465648 -75.08930464 37.84913202 -72.64997864 34.92797852 C-66.77771238 30.08433689 -61.07096235 26.72473771 -54.23828125 23.40625 C-49.77308163 21.11170834 -45.57928813 18.44202209 -41.328125 15.77734375 C-26.55278311 6.7421875 -26.55278311 6.7421875 -23 6.7421875 C-23 6.0821875 -23 5.4221875 -23 4.7421875 C-21.17792183 3.72182372 -19.34163131 2.72682206 -17.5 1.7421875 C-16.4790625 1.1853125 -15.458125 0.6284375 -14.40625 0.0546875 C-9.27959875 -1.92071941 -5.20943084 -2.18416241 0 0 Z " fill="#373737" transform="translate(727,180.2578125)"/>
<path d="M0 0 C6.93323199 5.92638396 11.88299034 13.77909603 12.8125 22.9375 C13.55369188 32.95032843 11.66451214 42.44348583 5.046875 50.1640625 C-2.03000166 57.55386228 -8.57637608 61.84586453 -18.9375 62.8125 C-29.32845882 62.8125 -38.34919311 60.21597962 -45.9453125 52.87109375 C-53.67610762 44.66960446 -56.52530206 37.99256899 -56.34033203 26.69506836 C-55.8779911 15.62108871 -51.70211082 8.03991814 -43.625 0.5625 C-30.8138134 -9.86256759 -13.28108222 -9.64673202 0 0 Z M-41.9375 8 C-48.40803507 15.11874609 -49.60946785 22.1093146 -49.34375 31.59765625 C-48.34150143 39.52891173 -44.35875262 45.41442588 -38.17578125 50.33984375 C-32.11714504 54.32606687 -25.2556166 57.21559754 -17.9375 55.8125 C-14.49517264 54.69635143 -11.21604948 53.34025945 -7.9375 51.8125 C-7.25300781 51.52246094 -6.56851563 51.23242188 -5.86328125 50.93359375 C0.05974036 47.48550612 3.84775192 40.41969774 5.625 33.98828125 C7.31936205 25.5618557 5.27242855 18.01277938 0.77734375 10.73046875 C-3.48088271 5.28610679 -9.04597104 1.50741588 -15.890625 0.28515625 C-26.02486851 -0.68316806 -34.23341086 0.76397539 -41.9375 8 Z " fill="#8FC11D" transform="translate(773.9375,366.1875)"/>
<path d="M0 0 C3.17625 -0.0825 6.3525 -0.165 9.625 -0.25 C10.6145166 -0.28641602 11.6040332 -0.32283203 12.62353516 -0.36035156 C18.42566196 -0.43306874 21.56895533 0.17964418 26 4 C28.35062814 7.205402 28.39807915 10.09882438 28 14 C27.20722656 15.10021484 27.20722656 15.10021484 26.3984375 16.22265625 C24.51688453 19.95948352 25.31311562 22.63265048 26.3125 26.5 C27.32549525 30.7103918 28.22663189 34.63523766 28 39 C25.03 39 22.06 39 19 39 C18.80083984 37.60974609 18.80083984 37.60974609 18.59765625 36.19140625 C18.42105469 34.99386719 18.24445312 33.79632813 18.0625 32.5625 C17.88847656 31.36753906 17.71445312 30.17257812 17.53515625 28.94140625 C17.31014787 26.12044324 17.31014787 26.12044324 16 25 C13.69 24.67 11.38 24.34 9 24 C9 28.95 9 33.9 9 39 C6.03 39 3.06 39 0 39 C0 26.13 0 13.26 0 0 Z M8 8 C8 10.97 8 13.94 8 17 C13.47963553 17.59842623 13.47963553 17.59842623 18.125 15.3125 C19.28589442 12.94820441 19.28589442 12.94820441 18.1875 10.25 C17.795625 9.5075 17.40375 8.765 17 8 C14.03 8 11.06 8 8 8 Z " fill="#8BBF17" transform="translate(739,374)"/>
<path d="M0 0 C2.609375 1.5703125 2.609375 1.5703125 4.625 4 C5.89990405 9.55334841 5.18732996 15.38919663 4.625 21 C-4.82055568 26.89279694 -4.82055568 26.89279694 -10 27.25 C-11.11375 26.8375 -12.2275 26.425 -13.375 26 C-14.17550781 25.71511719 -14.97601562 25.43023437 -15.80078125 25.13671875 C-18.76092958 23.72339754 -20.36287288 22.61009114 -22.375 20 C-23.84455139 14.30173949 -23.89964397 9.69122824 -22.375 4 C-15.81158674 -3.60092876 -8.7618316 -3.99939461 0 0 Z " fill="#84BD0A" transform="translate(728.375,243)"/>
<path d="M0 0 C0.66 0.99 1.32 1.98 2 3 C1.34 3 0.68 3 0 3 C0.04125 4.0725 0.0825 5.145 0.125 6.25 C0 10 0 10 -0.99609375 11.9140625 C-3.7514046 17.63910528 -2.02498666 25.88361766 -1.63194758 32.03623933 C-0.98284064 42.36883382 -0.87580984 52.65693518 -0.91821289 63.0065918 C-0.9217807 64.83037736 -0.92486344 66.65416392 -0.92750549 68.47795105 C-0.93398913 72.363855 -0.94350218 76.24973475 -0.95540047 80.13562584 C-0.97387856 86.28448843 -0.98333909 92.43334561 -0.99131775 98.58222961 C-1.01533663 116.052485 -1.05148311 133.52270511 -1.09594727 150.99291992 C-1.12050541 160.6730478 -1.13785745 170.35316244 -1.14750665 180.03331691 C-1.15403398 186.14303015 -1.16955631 192.25263277 -1.19182408 198.36230791 C-1.20356382 202.15716152 -1.20692191 205.95198839 -1.20792198 209.7468586 C-1.21006634 211.50324146 -1.2156473 213.25962406 -1.2249527 215.01598358 C-1.23717967 217.41677026 -1.23697946 219.81725469 -1.23377991 222.21806335 C-1.24354161 223.25463586 -1.24354161 223.25463586 -1.25350052 224.31214923 C-1.22997948 228.86028247 -0.25251571 232.65552803 1 237 C0.67 237.99 0.34 238.98 0 240 C-3.28187665 233.72545961 -4.58344078 228.67811164 -4.50120544 221.6262207 C-4.50673984 220.72649945 -4.51227424 219.8267782 -4.51797634 218.89979267 C-4.53150577 215.90816795 -4.51665559 212.91738873 -4.50170898 209.92578125 C-4.50549496 207.77159269 -4.51099729 205.61740656 -4.51808167 203.46322632 C-4.5320171 197.62852632 -4.52087971 191.79412184 -4.50437045 185.95943832 C-4.4904955 179.8457594 -4.49698282 173.7320972 -4.50050354 167.6184082 C-4.50320372 157.35265352 -4.48974649 147.08701589 -4.46655273 136.82128906 C-4.4399443 124.96230837 -4.43819668 113.10352336 -4.4499411 101.24452305 C-4.4607302 89.8241533 -4.45452289 78.40385414 -4.44038582 66.98348999 C-4.43463587 62.12883836 -4.43470092 57.27423856 -4.43945122 52.41958618 C-4.4442328 46.70018817 -4.43407019 40.98100369 -4.41249657 35.26164627 C-4.40694465 33.16587672 -4.4064487 31.07008658 -4.41144943 28.97431564 C-4.41743132 26.10723532 -4.40484143 23.24080152 -4.38768005 20.3737793 C-4.3936901 19.55012532 -4.39970014 18.72647135 -4.40589231 17.87785816 C-4.3361415 11.44225775 -2.88329345 5.76658689 0 0 Z " fill="#8FC818" transform="translate(243,454)"/>
<path d="M0 0 C0.66 0.33 1.32 0.66 2 1 C2 1.66 2 2.32 2 3 C2.66 3 3.32 3 4 3 C4 9.93 4 16.86 4 24 C8.190068 17.01655334 8.16130435 10.90391324 8 3 C8.33 3 8.66 3 9 3 C10.49250707 13.42738045 10.27321742 24.083573 4 33 C-3.31810961 41.53779455 -10.56436263 46.99485032 -22 48 C-25.70194231 47.87347792 -29.33313213 47.51587115 -33 47 C-33 46.67 -33 46.34 -33 46 C-31.86820313 45.93941406 -30.73640625 45.87882812 -29.5703125 45.81640625 C-28.08852855 45.73200083 -26.6067584 45.64735283 -25.125 45.5625 C-24.37863281 45.52318359 -23.63226562 45.48386719 -22.86328125 45.44335938 C-18.80013136 45.28426376 -18.80013136 45.28426376 -15 44 C-15 43.34 -15 42.68 -15 42 C-16.01320313 42.01160156 -17.02640625 42.02320313 -18.0703125 42.03515625 C-19.42187314 42.04454209 -20.7734358 42.05364143 -22.125 42.0625 C-23.12273438 42.07506836 -23.12273438 42.07506836 -24.140625 42.08789062 C-28.20681354 42.10782292 -32.0120092 41.78890161 -36 41 C-36 40.34 -36 39.68 -36 39 C-37.32 38.67 -38.64 38.34 -40 38 C-39.67 37.34 -39.34 36.68 -39 36 C-38.05640625 36.433125 -38.05640625 36.433125 -37.09375 36.875 C-30.49124562 39.73873684 -25.40321588 41.48775324 -18.421875 39.12890625 C-16.70053797 38.44188138 -14.99062302 37.72513348 -13.296875 36.97265625 C-11 36 -11 36 -8.765625 35.48046875 C-8.18296875 35.32191406 -7.6003125 35.16335938 -7 35 C-5.93283296 33.20067421 -5.93283296 33.20067421 -5 31 C-4.360625 30.278125 -3.72125 29.55625 -3.0625 28.8125 C1.24465318 22.9391093 2.83257345 16.20653742 2 9 C1.44568728 5.96786202 0.77346907 2.98338071 0 0 Z " fill="#99C532" transform="translate(777,381)"/>
<path d="M0 0 C1.80791016 0.01933594 1.80791016 0.01933594 3.65234375 0.0390625 C4.90660156 0.07257813 6.16085937 0.10609375 7.453125 0.140625 C8.72285156 0.15867187 9.99257813 0.17671875 11.30078125 0.1953125 C14.43565577 0.24245347 17.5690106 0.30824836 20.703125 0.390625 C20.703125 1.380625 20.703125 2.370625 20.703125 3.390625 C11.133125 3.390625 1.563125 3.390625 -8.296875 3.390625 C-8.626875 72.360625 -8.956875 141.330625 -9.296875 212.390625 C-9.626875 212.390625 -9.956875 212.390625 -10.296875 212.390625 C-10.39023983 185.33991037 -10.46081571 158.28921982 -10.50412369 131.23837662 C-10.52476515 118.67871979 -10.55291608 106.11916296 -10.59863281 93.55957031 C-10.63845199 82.61499076 -10.66429628 71.67048362 -10.67322898 60.72583365 C-10.67845204 54.92856367 -10.69076116 49.13150088 -10.71979523 43.33429718 C-10.74688651 37.88097271 -10.75533269 32.42794134 -10.74930573 26.97455597 C-10.75040878 24.97019866 -10.75839989 22.96583183 -10.7736969 20.96153259 C-10.79352642 18.23003424 -10.78884002 15.49965026 -10.77789307 12.76812744 C-10.78954443 11.97046156 -10.8011958 11.17279568 -10.81320024 10.35095811 C-10.7746873 6.80871233 -10.58611482 4.78142236 -8.45009995 1.89541245 C-5.51825601 -0.15351512 -3.55464306 -0.06706874 0 0 Z " fill="#9ED037" transform="translate(373.296875,483.609375)"/>
<path d="M0 0 C0.66 0.99 1.32 1.98 2 3 C1.34 3 0.68 3 0 3 C0.04125 4.0725 0.0825 5.145 0.125 6.25 C0 10 0 10 -0.99040794 11.69179916 C-2.54585827 15.24797982 -2.28738264 18.86449551 -2.2784729 22.68121338 C-2.2842653 23.56667839 -2.2900577 24.4521434 -2.29602563 25.36444068 C-2.31305646 28.33707267 -2.3159048 31.30954969 -2.31884766 34.28222656 C-2.3281437 36.41087221 -2.33831188 38.53951421 -2.34928894 40.66815186 C-2.37663948 46.4528467 -2.39175334 52.23751713 -2.40471697 58.02225971 C-2.42032539 64.06546652 -2.44712289 70.10862329 -2.4727478 76.15179443 C-2.51957615 87.59808307 -2.55630064 99.04438108 -2.58942068 110.4907167 C-2.62761341 123.5208222 -2.67703102 136.5508775 -2.72740483 149.58094072 C-2.83078502 176.38725663 -2.92002562 203.19360477 -3 230 C-2.01 230.33 -1.02 230.66 0 231 C0.33 233.97 0.66 236.94 1 240 C-3.71861295 234.20897501 -4.29338355 229.33174323 -4.26069641 222.10723877 C-4.26452196 221.21093522 -4.26834751 220.31463167 -4.27228898 219.3911674 C-4.28260886 216.38734624 -4.27862869 213.38371658 -4.2746582 210.37988281 C-4.27900531 208.22628604 -4.28418845 206.07269082 -4.29014587 203.9190979 C-4.30354923 198.06771923 -4.3041129 192.21640511 -4.30158257 186.36501408 C-4.30051348 181.47945089 -4.30539482 176.59390079 -4.310188 171.70834041 C-4.32128844 160.17989929 -4.32171798 148.65149075 -4.31567383 137.12304688 C-4.30963667 125.23462419 -4.32193733 113.34631993 -4.3432439 101.45791745 C-4.36086724 91.2488356 -4.36685997 81.03979141 -4.36360615 70.83069491 C-4.36179386 64.73437962 -4.36442391 58.63814874 -4.37832069 52.54184723 C-4.39090575 46.80610906 -4.38894834 41.07055517 -4.37590981 35.33481979 C-4.37354573 33.23259544 -4.37627263 31.1303581 -4.38453293 29.02814865 C-4.39501657 26.15211829 -4.38688648 23.27670438 -4.3742218 20.4006958 C-4.38159609 19.57431335 -4.38897037 18.74793089 -4.39656812 17.89650655 C-4.33709888 11.45009267 -2.88800934 5.77601868 0 0 Z " fill="#9DC943" transform="translate(243,454)"/>
<path d="M0 0 C0 0.33 0 0.66 0 1 C-1.65 1.33 -3.3 1.66 -5 2 C-4.505 3.98 -4.505 3.98 -4 6 C-4.73863281 5.84402344 -5.47726562 5.68804687 -6.23828125 5.52734375 C-13.44289813 4.14500938 -19.74422156 3.9430559 -27 5 C-27 3.35 -27 1.7 -27 0 C-27.66 0 -28.32 0 -29 0 C-29 0.66 -29 1.32 -29 2 C-30.26418246 2.69965443 -31.53665402 3.38434763 -32.8125 4.0625 C-33.52019531 4.44535156 -34.22789062 4.82820313 -34.95703125 5.22265625 C-37 6 -37 6 -40 5 C-27.69157531 -6.11728682 -14.71375838 -5.02421018 0 0 Z " fill="#90C32D" transform="translate(769,363)"/>
<path d="M0 0 C0.33 0 0.66 0 1 0 C1.06945503 9.85731179 1.12278834 19.71456554 1.15543652 29.57207203 C1.17110459 34.14912866 1.19236359 38.72601811 1.22631836 43.30297852 C1.25887126 47.71851435 1.27684441 52.1338892 1.28463173 56.54953575 C1.29018258 58.23568952 1.30102185 59.9218343 1.31719017 61.60791969 C1.33891075 63.96642854 1.34196924 66.32426885 1.34057617 68.68286133 C1.35675491 69.73266678 1.35675491 69.73266678 1.3732605 70.80368042 C1.35418609 73.78047595 1.34063033 75.56173727 -0.52128601 77.95732117 C-1.00926163 78.30140518 -1.49723724 78.6454892 -2 79 C-2.33 78.01 -2.66 77.02 -3 76 C-2.505 75.505 -2.505 75.505 -2 75 C-1.88125381 72.84902911 -1.83255491 70.69417278 -1.81054688 68.54003906 C-1.80225357 67.86517456 -1.79396027 67.19031006 -1.78541565 66.49499512 C-1.76797704 65.02448153 -1.75282075 63.55393956 -1.73963928 62.08338165 C-1.71865164 59.75471169 -1.69162215 57.42618257 -1.66296387 55.09759521 C-1.60316477 50.14845092 -1.55111566 45.19924055 -1.5 40.25 C-1.44073357 34.5293325 -1.37829783 28.80873305 -1.30812073 23.08818817 C-1.28160868 20.79662751 -1.26075031 18.50505994 -1.2401123 16.21343994 C-1.2234989 14.80146974 -1.20662616 13.38950256 -1.18945312 11.97753906 C-1.17692505 10.74811584 -1.16439697 9.51869263 -1.15148926 8.25201416 C-1.01772555 5.38051379 -0.66015276 2.79108098 0 0 Z " fill="#A8CF4D" transform="translate(428,217)"/>
<path d="M0 0 C-0.33 7.92 -0.66 15.84 -1 24 C-1.99 24 -2.98 24 -4 24 C-4.33 23.01 -4.66 22.02 -5 21 C-5.66 20.67 -6.32 20.34 -7 20 C-7 14.72 -7 9.44 -7 4 C-6.34 4 -5.68 4 -5 4 C-5 3.01 -5 2.02 -5 1 C-3 0 -3 0 0 0 Z " fill="#87BC13" transform="translate(725,383)"/>
<path d="M0 0 C1.04285156 -0.00257813 2.08570313 -0.00515625 3.16015625 -0.0078125 C4.24425781 -0.00007813 5.32835937 0.00765625 6.4453125 0.015625 C7.52167969 0.00789063 8.59804688 0.00015625 9.70703125 -0.0078125 C15.11576035 0.00552592 19.48600001 0.26475019 24.5703125 2.265625 C27.92118579 2.83263529 31.27432906 3.26775863 34.64453125 3.703125 C37.5703125 4.265625 37.5703125 4.265625 40.5703125 6.265625 C40.5703125 7.255625 40.5703125 8.245625 40.5703125 9.265625 C38.86875 8.6159375 38.86875 8.6159375 37.1328125 7.953125 C21.99689389 3.00934973 6.35471247 2.6263999 -9.4296875 2.265625 C-6.18277782 0.34287402 -3.75146127 0.0089427 0 0 Z " fill="#8FBE20" transform="translate(497.4296875,508.734375)"/>
<path d="M0 0 C1.50064955 0.0050254 3.00130072 0.00958647 4.50195312 0.01367188 C8.14716977 0.02459424 11.79232422 0.04180144 15.4375 0.0625 C15.4375 0.3925 15.4375 0.7225 15.4375 1.0625 C14.51412842 1.08231934 13.59075684 1.10213867 12.6394043 1.12255859 C9.21188826 1.20067739 5.78481202 1.28736997 2.35766602 1.37988281 C0.87467788 1.41815347 -0.60840248 1.45300978 -2.09155273 1.484375 C-4.22413072 1.530068 -6.35607491 1.58805338 -8.48828125 1.6484375 C-9.77130127 1.6798584 -11.05432129 1.7112793 -12.3762207 1.74365234 C-15.71637459 1.82629228 -15.71637459 1.82629228 -18.5625 4.0625 C-21.26171875 4.0390625 -21.26171875 4.0390625 -24.25 3.6875 C-25.74080078 3.52121094 -25.74080078 3.52121094 -27.26171875 3.3515625 C-28.02097656 3.25617188 -28.78023438 3.16078125 -29.5625 3.0625 C-29.5625 3.7225 -29.5625 4.3825 -29.5625 5.0625 C-34.21099515 7.4617233 -38.47336074 7.26207409 -43.5625 7.0625 C-40.28477275 4.8773485 -37.19003542 3.97908414 -33.4375 3 C-32.17679687 2.65839844 -30.91609375 2.31679688 -29.6171875 1.96484375 C-19.84579482 -0.34535974 -9.97604518 -0.05836521 0 0 Z " fill="#A3CB45" transform="translate(499.5625,478.9375)"/>
<path d="M0 0 C6.6 0.33 13.2 0.66 20 1 C20.33 1.99 20.66 2.98 21 4 C18.17588235 4.94137255 16.47081968 5.11725382 13.55078125 5.09765625 C12.70322266 5.09443359 11.85566406 5.09121094 10.98242188 5.08789062 C10.10134766 5.07951172 9.22027344 5.07113281 8.3125 5.0625 C7.41982422 5.05798828 6.52714844 5.05347656 5.60742188 5.04882812 C3.40488013 5.03704983 1.20247401 5.02060164 -1 5 C-0.67 3.35 -0.34 1.7 0 0 Z " fill="#83BA03" transform="translate(742,422)"/>
<path d="M0 0 C2.97 0.495 2.97 0.495 6 1 C6 5.29 6 9.58 6 14 C4.02 14 2.04 14 0 14 C-0.19456705 12.04235617 -0.38044247 10.08384679 -0.5625 8.125 C-0.66691406 7.03445313 -0.77132812 5.94390625 -0.87890625 4.8203125 C-1 2 -1 2 0 0 Z " fill="#85BB06" transform="translate(759,398)"/>
<path d="M0 0 C3.25 -0.375 3.25 -0.375 7 0 C9.79598168 3.01105719 10.86803038 5.05735983 11.4375 9.125 C10.95843145 12.27316474 10.1367793 13.68515576 8 16 C8.08378906 15.38511719 8.16757812 14.77023437 8.25390625 14.13671875 C8.35574219 13.32847656 8.45757813 12.52023437 8.5625 11.6875 C8.66691406 10.88699219 8.77132812 10.08648437 8.87890625 9.26171875 C9.14755178 6.83182884 9.14755178 6.83182884 8 4 C6.68 4 5.36 4 4 4 C3.34 5.65 2.68 7.3 2 9 C1.34 8.34 0.68 7.68 0 7 C-2.20250992 6.53993654 -2.20250992 6.53993654 -4.625 6.375 C-5.44226563 6.30023438 -6.25953125 6.22546875 -7.1015625 6.1484375 C-7.72804688 6.09945313 -8.35453125 6.05046875 -9 6 C-9 5.34 -9 4.68 -9 4 C-4.545 3.505 -4.545 3.505 0 3 C0 2.01 0 1.02 0 0 Z " fill="#91C425" transform="translate(756,376)"/>
<path d="M0 0 C4.0618006 6.09270089 5.20936192 14.79584405 4 22 C2.87841797 23.61694336 2.87841797 23.61694336 1 25 C-1.91088867 25.34057617 -1.91088867 25.34057617 -5.41796875 25.29296875 C-6.67158203 25.28330078 -7.92519531 25.27363281 -9.21679688 25.26367188 C-11.18229492 25.2259668 -11.18229492 25.2259668 -13.1875 25.1875 C-14.52277163 25.17244967 -15.85805937 25.15876187 -17.19335938 25.14648438 C-20.46264576 25.11107694 -23.73112093 25.0616889 -27 25 C-27 24.67 -27 24.34 -27 24 C-26.29915283 23.97494385 -25.59830566 23.9498877 -24.8762207 23.92407227 C-21.68814512 23.80773455 -18.50033758 23.68517956 -15.3125 23.5625 C-14.20970703 23.52318359 -13.10691406 23.48386719 -11.97070312 23.44335938 C-10.3706543 23.38051758 -10.3706543 23.38051758 -8.73828125 23.31640625 C-7.26935425 23.26141968 -7.26935425 23.26141968 -5.77075195 23.20532227 C-2.60655311 23.02800956 -2.60655311 23.02800956 2 22 C1.34 14.74 0.68 7.48 0 0 Z " fill="#A6CE4A" transform="translate(583,522)"/>
<path d="M0 0 C3.23152411 6.46304822 3.18285326 11.74689394 3.1875 18.875 C3.19974609 19.85597656 3.21199219 20.83695313 3.22460938 21.84765625 C3.23497216 26.96687218 3.05349387 31.21121982 1 36 C0.67 36 0.34 36 0 36 C0 24.12 0 12.24 0 0 Z " fill="#96C232" transform="translate(591,595)"/>
<path d="M0 0 C0 0.33 0 0.66 0 1 C-1.65 1.33 -3.3 1.66 -5 2 C-4.67 3.32 -4.34 4.64 -4 6 C-6.97 5.34 -9.94 4.68 -13 4 C-13 3.67 -13 3.34 -13 3 C-11.35 2.67 -9.7 2.34 -8 2 C-9.60558484 0.07463062 -10.47769478 -0.91074167 -12.99291992 -1.34057617 C-14.10050659 -1.3170105 -14.10050659 -1.3170105 -15.23046875 -1.29296875 C-16.43413086 -1.2784668 -16.43413086 -1.2784668 -17.66210938 -1.26367188 C-18.49548828 -1.23853516 -19.32886719 -1.21339844 -20.1875 -1.1875 C-21.4549707 -1.16719727 -21.4549707 -1.16719727 -22.74804688 -1.14648438 C-24.83230384 -1.11115799 -26.91623277 -1.05735139 -29 -1 C-19.80386256 -7.13075829 -9.5583006 -3.26380996 0 0 Z " fill="#9DC93D" transform="translate(769,363)"/>
<path d="M0 0 C1.9375 0.25 1.9375 0.25 4 1 C6 4 6 4 5.7578125 6.26171875 C5.54898438 7.06222656 5.34015625 7.86273438 5.125 8.6875 C4.92132812 9.49574219 4.71765625 10.30398438 4.5078125 11.13671875 C4.34023438 11.75160156 4.17265625 12.36648438 4 13 C2.02 12.34 0.04 11.68 -2 11 C-1.85957123 9.35369672 -1.71250671 7.70795821 -1.5625 6.0625 C-1.48128906 5.14597656 -1.40007813 4.22945313 -1.31640625 3.28515625 C-1 1 -1 1 0 0 Z " fill="#80B906" transform="translate(760,379)"/>
<path d="M0 0 C9.18864371 0.57411052 18.21655324 1.65508998 27.3125 3.0625 C29.15618164 3.3419043 29.15618164 3.3419043 31.03710938 3.62695312 C34.02540775 4.08043031 37.01298426 4.53816314 40 5 C40 5.33 40 5.66 40 6 C37.54159395 6.02691685 35.08348118 6.04679802 32.625 6.0625 C31.92632813 6.07087891 31.22765625 6.07925781 30.5078125 6.08789062 C25.2265625 6.11328125 25.2265625 6.11328125 23 5 C21.64655763 4.95571559 20.2910961 4.96069412 18.9375 5 C17.638125 5 16.33875 5 15 5 C14.67 4.67 14.34 4.34 14 4 C12.58776052 3.81617544 11.16948956 3.67765727 9.75 3.5625 C6.1810892 3.20959335 3.26064655 2.5777322 0 1 C0 0.67 0 0.34 0 0 Z " fill="#9DC83A" transform="translate(484,554)"/>
<path d="M0 0 C2.24940295 -0.08119503 4.49964871 -0.13927819 6.75 -0.1875 C8.00296875 -0.22230469 9.2559375 -0.25710938 10.546875 -0.29296875 C14.1381757 0.01172305 15.533239 0.42734269 18 3 C18 3.66 18 4.32 18 5 C16.10353002 4.88506243 14.20781668 4.75760358 12.3125 4.625 C11.25675781 4.55539062 10.20101562 4.48578125 9.11328125 4.4140625 C6.06349549 4.00844482 3.74451665 3.37473086 1 2 C0.67 1.34 0.34 0.68 0 0 Z " fill="#7EBC04" transform="translate(744,361)"/>
<path d="M0 0 C0.66 0 1.32 0 2 0 C2 1.65 2 3.3 2 5 C-1.98188718 6.71767682 -5.96479403 8.41037341 -10 10 C-10 10.99 -10 11.98 -10 13 C-10.99 12.67 -11.98 12.34 -13 12 C-12.42152602 8.81839311 -11.89983211 6.64134902 -9.19140625 4.7109375 C-5.93364251 3.04917911 -3.70254152 2 0 2 C0 1.34 0 0.68 0 0 Z " fill="#7CBB03" transform="translate(740,363)"/>
<path d="M0 0 C0.33 0 0.66 0 1 0 C1.00808685 0.56296783 1.01617371 1.12593567 1.02450562 1.70596313 C1.1107323 7.57877744 1.2102434 13.45126124 1.31738281 19.32373047 C1.3556058 21.51377806 1.39047022 23.703887 1.421875 25.89404297 C1.46767043 29.04677212 1.52564149 32.19908138 1.5859375 35.3515625 C1.59748871 36.32678864 1.60903992 37.30201477 1.62094116 38.30679321 C1.72765962 43.25072977 2.06566104 47.36437365 4 52 C3.34 52 2.68 52 2 52 C0.20542324 48.91217022 -0.24576692 46.69571565 -0.22705078 43.13964844 C-0.22689972 42.17895447 -0.22674866 41.2182605 -0.22659302 40.22845459 C-0.21627045 39.19915833 -0.20594788 38.16986206 -0.1953125 37.109375 C-0.1924826 36.04962463 -0.18965271 34.98987427 -0.18673706 33.89801025 C-0.17554734 30.51522503 -0.1504447 27.13270513 -0.125 23.75 C-0.11496865 21.45573299 -0.10584307 19.16146183 -0.09765625 16.8671875 C-0.07561196 11.24470123 -0.04214627 5.62236957 0 0 Z " fill="#717171" transform="translate(203,244)"/>
<path d="M0 0 C0.66 0 1.32 0 2 0 C4.64694025 4.63214543 5 6.34968203 5 12 C12.92 12 20.84 12 29 12 C29 12.33 29 12.66 29 13 C24.89620302 13.14489234 20.79306033 13.23393542 16.6875 13.3125 C15.52025391 13.35439453 14.35300781 13.39628906 13.15039062 13.43945312 C12.03212891 13.45556641 10.91386719 13.47167969 9.76171875 13.48828125 C8.2142395 13.52755737 8.2142395 13.52755737 6.63549805 13.56762695 C4 13 4 13 2.21411133 10.70776367 C0.79255118 7.53733866 -0.14261084 4.36360363 -1 1 C-0.67 0.67 -0.34 0.34 0 0 Z " fill="#88B817" transform="translate(551,533)"/>
<path d="M0 0 C0.66 0.33 1.32 0.66 2 1 C-2.29731631 5.15746282 -4.96281092 7.15760152 -11 8 C-11.6837045 9.32467746 -12.34964186 10.65863633 -13 12 C-16.81058817 13.73961634 -19.03483443 14.19298271 -23 13 C-22.34515625 12.64808594 -21.6903125 12.29617187 -21.015625 11.93359375 C-14.71476901 8.52507985 -8.54301923 4.96458005 -2.43359375 1.22265625 C-1.22896484 0.61744141 -1.22896484 0.61744141 0 0 Z " fill="#99C337" transform="translate(346,185)"/>
<path d="M0 0 C0.33 0 0.66 0 1 0 C2.03821145 6.91724015 2.63029431 11.86605445 -1 18 C-3.34964204 21.07884129 -4.44134662 21.87107999 -8.25 22.75 C-9.61125 22.87375 -9.61125 22.87375 -11 23 C-9.88625 21.9790625 -9.88625 21.9790625 -8.75 20.9375 C-4.56544448 16.74105654 -1.76324796 11.95333406 -1 6 C-0.814375 4.906875 -0.62875 3.81375 -0.4375 2.6875 C-0.293125 1.800625 -0.14875 0.91375 0 0 Z " fill="#9CC639" transform="translate(558,613)"/>
<path d="M0 0 C8.91 0 17.82 0 27 0 C27 0.99 27 1.98 27 3 C18.09 2.67 9.18 2.34 0 2 C0 1.34 0 0.68 0 0 Z " fill="#91C331" transform="translate(367,484)"/>
<path d="M0 0 C3.3 0 6.6 0 10 0 C10.33 0.99 10.66 1.98 11 3 C11.99 3.33 12.98 3.66 14 4 C14 4.66 14 5.32 14 6 C15.98 6 17.96 6 20 6 C20 6.66 20 7.32 20 8 C20.66 8.33 21.32 8.66 22 9 C13.78892255 7.94636617 7.22723857 4.94890355 0 1 C0 0.67 0 0.34 0 0 Z " fill="#99C634" transform="translate(440,576)"/>
<path d="M0 0 C-7.26 4.29 -14.52 8.58 -22 13 C-22.33 12.34 -22.66 11.68 -23 11 C-22.34 11 -21.68 11 -21 11 C-21 10.34 -21 9.68 -21 9 C-20.01 9 -19.02 9 -18 9 C-18 8.34 -18 7.68 -18 7 C-17.360625 6.87625 -16.72125 6.7525 -16.0625 6.625 C-15.381875 6.41875 -14.70125 6.2125 -14 6 C-13.67 5.34 -13.34 4.68 -13 4 C-11.36935236 2.94228261 -9.69719127 1.94726954 -8 1 C-7.319375 0.5875 -6.63875 0.175 -5.9375 -0.25 C-4 -1 -4 -1 0 0 Z " fill="#9AC63B" transform="translate(613,728)"/>
<path d="M0 0 C18.85106383 -0.76595745 18.85106383 -0.76595745 26 4 C26 4.99 26 5.98 26 7 C24.865625 6.566875 23.73125 6.13375 22.5625 5.6875 C15.26172021 3.2226065 7.58484989 2.22785745 0 1 C0 0.67 0 0.34 0 0 Z " fill="#99C733" transform="translate(512,511)"/>
<path d="M0 0 C0.66 0.33 1.32 0.66 2 1 C2 6.28 2 11.56 2 17 C2.99 17.33 3.98 17.66 5 18 C5 18.66 5 19.32 5 20 C0.125 18.125 0.125 18.125 -1 17 C-1.09981214 14.3226862 -1.13879875 11.67695825 -1.125 9 C-1.12886719 8.24976563 -1.13273438 7.49953125 -1.13671875 6.7265625 C-1.12661053 1.12661053 -1.12661053 1.12661053 0 0 Z " fill="#98C537" transform="translate(707,246)"/>
<path d="M0 0 C0.33 0 0.66 0 1 0 C1.04898438 0.85722656 1.09796875 1.71445312 1.1484375 2.59765625 C1.54534244 8.66756456 1.99208399 14.24397411 4 20 C2.68 20 1.36 20 0 20 C-0.66 21.32 -1.32 22.64 -2 24 C-2.99 21.03 -3.98 18.06 -5 15 C-4.01 15.495 -4.01 15.495 -3 16 C-3 16.99 -3 17.98 -3 19 C-2.01 19 -1.02 19 0 19 C0 12.73 0 6.46 0 0 Z " fill="#A3CC43" transform="translate(724,388)"/>
<path d="M0 0 C4.09338652 -0.04939115 8.18665798 -0.08571501 12.28027344 -0.10986328 C13.67320781 -0.11992877 15.06612102 -0.13358234 16.45898438 -0.15087891 C18.4595436 -0.1751022 20.46025615 -0.18540814 22.4609375 -0.1953125 C24.26763916 -0.21102295 24.26763916 -0.21102295 26.11083984 -0.22705078 C29 0 29 0 31 2 C30.67 2.99 30.34 3.98 30 5 C30 4.34 30 3.68 30 3 C29.195625 3.020625 28.39125 3.04125 27.5625 3.0625 C25 3 25 3 24 2 C20.21504445 1.74747157 16.41738304 1.81477361 12.625 1.8125 C11.55765625 1.80025391 10.4903125 1.78800781 9.390625 1.77539062 C8.36710937 1.77345703 7.34359375 1.77152344 6.2890625 1.76953125 C5.34756348 1.76542236 4.40606445 1.76131348 3.43603516 1.75708008 C0.74153323 1.83329965 0.74153323 1.83329965 -2 4 C-1.34 2.68 -0.68 1.36 0 0 Z " fill="#91C034" transform="translate(415,604)"/>
<path d="M0 0 C0.66 0.33 1.32 0.66 2 1 C0.39676273 2.77168246 -1.20755139 4.54236892 -2.8125 6.3125 C-3.26431641 6.81201172 -3.71613281 7.31152344 -4.18164062 7.82617188 C-6.40219821 10.27364776 -8.63155925 12.69450785 -11 15 C-11 10.51051566 -10.62632372 10.07365969 -7.75 6.9375 C-7.14671875 6.26589844 -6.5434375 5.59429687 -5.921875 4.90234375 C-4.05701602 3.05643659 -2.13677682 1.51748973 0 0 Z " fill="#94C128" transform="translate(256,440)"/>
<path d="M0 0 C0.99 0 1.98 0 3 0 C3.92133857 2.96949408 4.04957233 4.98095173 3.3125 8 C3.09013672 8.99 3.09013672 8.99 2.86328125 10 C2 12 2 12 -2 16 C-1.34 10.72 -0.68 5.44 0 0 Z " fill="#83B904" transform="translate(782,390)"/>
<path d="M0 0 C0.66 0.33 1.32 0.66 2 1 C-3.4529148 8.63408072 -3.4529148 8.63408072 -7.24609375 9.53125 C-9.4375 9.5 -9.4375 9.5 -13 9 C-10.59497637 6.36479259 -7.9814151 4.59697057 -4.9375 2.75 C-4.05964844 2.20859375 -3.18179687 1.6671875 -2.27734375 1.109375 C-1.52582031 0.74328125 -0.77429688 0.3771875 0 0 Z " fill="#9DC838" transform="translate(477,767)"/>
<path d="M0 0 C0.66 0.33 1.32 0.66 2 1 C1.67 1.99 1.34 2.98 1 4 C-0.65 4 -2.3 4 -4 4 C-4.433125 4.928125 -4.433125 4.928125 -4.875 5.875 C-6 8 -6 8 -8 10 C-11.625 10.125 -11.625 10.125 -15 10 C-10.47125612 6.07508864 -5.39401009 2.62540314 0 0 Z " fill="#93C32C" transform="translate(555,722)"/>
<path d="M0 0 C0.99 0.495 0.99 0.495 2 1 C2 1.66 2 2.32 2 3 C2.66 3 3.32 3 4 3 C4.0582253 6.08325358 4.09367134 9.16636505 4.125 12.25 C4.14175781 13.12269531 4.15851562 13.99539063 4.17578125 14.89453125 C4.18222656 15.73886719 4.18867187 16.58320313 4.1953125 17.453125 C4.20578613 18.22817383 4.21625977 19.00322266 4.22705078 19.80175781 C3.97326556 22.25883539 3.22444152 23.87311542 2 26 C1.34 26 0.68 26 0 26 C0.144375 25.443125 0.28875 24.88625 0.4375 24.3125 C2.56274728 15.57537228 2.25236158 8.68768037 0 0 Z " fill="#A3C943" transform="translate(777,381)"/>
<path d="M0 0 C4.70019136 1.3673284 8.64124309 3.39306458 12.75 6 C13.32621094 6.35578125 13.90242187 6.7115625 14.49609375 7.078125 C16.89475039 8.57658649 18.99356126 9.99356126 21 12 C15.25 12.125 15.25 12.125 13 11 C12.67 10.01 12.34 9.02 12 8 C9.98491642 7.26676204 9.98491642 7.26676204 8 7 C8 6.34 8 5.68 8 5 C6.35 5 4.7 5 3 5 C2.67 4.01 2.34 3.02 2 2 C1.34 2 0.68 2 0 2 C0 1.34 0 0.68 0 0 Z " fill="#9CC736" transform="translate(506,359)"/>
<path d="M0 0 C-2.64738916 1.4606285 -3.89448334 2 -7 2 C-7.33 2.99 -7.66 3.98 -8 5 C-9.65 5.33 -11.3 5.66 -13 6 C-13 6.66 -13 7.32 -13 8 C-14.98 8.99 -16.96 9.98 -19 11 C-19.66 10.34 -20.32 9.68 -21 9 C-18.56463678 7.51721428 -16.12687063 6.03866643 -13.6875 4.5625 C-12.99720703 4.14162109 -12.30691406 3.72074219 -11.59570312 3.28710938 C-10.59506836 2.68286133 -10.59506836 2.68286133 -9.57421875 2.06640625 C-8.65515747 1.5086853 -8.65515747 1.5086853 -7.7175293 0.93969727 C-4.61547162 -0.7575053 -3.4224265 -1.14080883 0 0 Z " fill="#9DC838" transform="translate(442,336)"/>
<path d="M0 0 C0.33 0 0.66 0 1 0 C1.33 2.31 1.66 4.62 2 7 C1.01 7.33 0.02 7.66 -1 8 C-2.40882539 9.6109098 -2.40882539 9.6109098 -3.75 11.5 C-6.24077242 14.56027063 -6.79806322 14.95114433 -10.875 15.9375 C-11.90625 15.958125 -12.9375 15.97875 -14 16 C-13.46375 15.608125 -12.9275 15.21625 -12.375 14.8125 C-11.199375 13.9153125 -11.199375 13.9153125 -10 13 C-9.01 12.278125 -8.02 11.55625 -7 10.8125 C-3.43862466 7.86577827 -1.76994936 4.19582113 0 0 Z " fill="#97C630" transform="translate(362,696)"/>
<path d="M0 0 C0 0.66 0 1.32 0 2 C-1.65 2.33 -3.3 2.66 -5 3 C-4.67 3.99 -4.34 4.98 -4 6 C-5.78810766 6.69670416 -7.58062052 7.38211189 -9.375 8.0625 C-10.37273437 8.44535156 -11.37046875 8.82820312 -12.3984375 9.22265625 C-15 10 -15 10 -17 9 C-14.87562549 7.68647829 -12.75053408 6.37414287 -10.625 5.0625 C-10.02171875 4.68931641 -9.4184375 4.31613281 -8.796875 3.93164062 C-2.42124155 0 -2.42124155 0 0 0 Z " fill="#9EC83B" transform="translate(504,753)"/>
<path d="M0 0 C0 0.66 0 1.32 0 2 C-0.66 2 -1.32 2 -2 2 C-2 2.66 -2 3.32 -2 4 C-2.66 4 -3.32 4 -4 4 C-4.33 4.99 -4.66 5.98 -5 7 C-8.80269732 8.6900877 -11.05272168 9.19873962 -15 8 C-14.31292969 7.59007812 -13.62585938 7.18015625 -12.91796875 6.7578125 C-12.01691406 6.21898437 -11.11585938 5.68015625 -10.1875 5.125 C-9.29417969 4.59132813 -8.40085937 4.05765625 -7.48046875 3.5078125 C-1.70984456 0 -1.70984456 0 0 0 Z " fill="#9BC638" transform="translate(360,381)"/>
<path d="M0 0 C1.65 0 3.3 0 5 0 C5 0.66 5 1.32 5 2 C6.32 1.34 7.64 0.68 9 0 C11.60018816 3.90028225 11.15085514 7.47434569 11 12 C10.773125 11.443125 10.54625 10.88625 10.3125 10.3125 C7.84161038 5.95902782 4.05514968 2.85362385 0 0 Z " fill="#97C634" transform="translate(547,600)"/>
<path d="M0 0 C3.57104439 1.87949705 5.54744301 3.17053157 7 7 C6.195625 7.12375 5.39125 7.2475 4.5625 7.375 C3.2940625 7.684375 3.2940625 7.684375 2 8 C1.67 8.66 1.34 9.32 1 10 C0.01 8.68 -0.98 7.36 -2 6 C-0.68 6 0.64 6 2 6 C1.34 5.34 0.68 4.68 0 4 C0 2.68 0 1.36 0 0 Z " fill="#96C52B" transform="translate(772,366)"/>
<path d="M0 0 C0.33 0.66 0.66 1.32 1 2 C-1.34715382 5.78152559 -3.82822214 7.46751017 -8 9 C-9.32 8.34 -10.64 7.68 -12 7 C-8.04 4.69 -4.08 2.38 0 0 Z " fill="#9BC433" transform="translate(389,363)"/>
<path d="M0 0 C0 0.66 0 1.32 0 2 C-9.23583744 7.4020936 -9.23583744 7.4020936 -15 6 C-12.61874536 3.61874536 -10.66142433 2.99813759 -7.5 1.875 C-6.5203125 1.52179687 -5.540625 1.16859375 -4.53125 0.8046875 C-2 0 -2 0 0 0 Z " fill="#9CC436" transform="translate(387,761)"/>
<path d="M0 0 C6.95660771 0.57021375 13.31427305 2.01302694 20 4 C20 4.33 20 4.66 20 5 C13.43429568 5.44766166 7.21488992 4.13698108 1 2 C0.67 1.34 0.34 0.68 0 0 Z " fill="#9FC73C" transform="translate(526,481)"/>
<path d="M0 0 C3.69876091 1.37287342 6.9514476 3.06355453 10.3125 5.125 C11.19550781 5.66382813 12.07851563 6.20265625 12.98828125 6.7578125 C13.65214844 7.16773438 14.31601562 7.57765625 15 8 C13.02 8.99 13.02 8.99 11 10 C10.236875 9.38125 9.47375 8.7625 8.6875 8.125 C6.00374191 5.94402948 6.00374191 5.94402948 3 4 C2.01 3.34 1.02 2.68 0 2 C0 1.34 0 0.68 0 0 Z " fill="#98C52C" transform="translate(539,378)"/>
<path d="M0 0 C0.90492188 0.30744141 0.90492188 0.30744141 1.828125 0.62109375 C3.02695312 1.02521484 3.02695312 1.02521484 4.25 1.4375 C5.03890625 1.70433594 5.8278125 1.97117187 6.640625 2.24609375 C8.74821988 2.91954708 10.84753973 3.49150595 13 4 C13 4.99 13 5.98 13 7 C13.66 7 14.32 7 15 7 C15 7.66 15 8.32 15 9 C9.26800429 7.53025751 4.66416601 4.55513098 0 1 C0 0.67 0 0.34 0 0 Z " fill="#99C336" transform="translate(399,789)"/>
<path d="M0 0 C6.19899905 -0.50604074 8.91137051 0.83160805 14 4 C16.26985894 4.76040572 16.26985894 4.76040572 18 5 C18 5.66 18 6.32 18 7 C11.53287812 5.83805848 5.90377651 3.8751252 0 1 C0 0.67 0 0.34 0 0 Z " fill="#9FC83F" transform="translate(309,737)"/>
<path d="M0 0 C0.66 0 1.32 0 2 0 C3.98598493 5.95795479 4.57045059 11.74892565 5 18 C1.06760685 14.06760685 0.09219786 7.78249194 -0.1875 2.375 C-0.125625 1.59125 -0.06375 0.8075 0 0 Z " fill="#9AC73A" transform="translate(413,618)"/>
<path d="M0 0 C0.99 0 1.98 0 3 0 C3.103125 0.639375 3.20625 1.27875 3.3125 1.9375 C3.539375 2.618125 3.76625 3.29875 4 4 C4.99 4.33 5.98 4.66 7 5 C7.45375 5.78375 7.9075 6.5675 8.375 7.375 C10.22651147 10.36590314 11.99152602 11.29248774 15 13 C15 13.66 15 14.32 15 15 C8.21571636 11.90381686 2.73696845 7.01348165 0 0 Z " fill="#A5CB4B" transform="translate(424,561)"/>
<path d="M0 0 C0 1.32 0 2.64 0 4 C-1.76641683 4.6987693 -3.53832664 5.38366583 -5.3125 6.0625 C-6.79169922 6.63677734 -6.79169922 6.63677734 -8.30078125 7.22265625 C-11 8 -11 8 -14 7 C-12.04480616 5.82807953 -10.0857461 4.6626071 -8.125 3.5 C-7.03445313 2.8503125 -5.94390625 2.200625 -4.8203125 1.53125 C-2 0 -2 0 0 0 Z " fill="#9AC436" transform="translate(272,432)"/>
<path d="M0 0 C0.33 0.99 0.66 1.98 1 3 C0.01 3.66 -0.98 4.32 -2 5 C-2.72382467 7.05925139 -2.72382467 7.05925139 -3 9 C-3.66 9 -4.32 9 -5 9 C-5 8.01 -5 7.02 -5 6 C-6.98 6.33 -8.96 6.66 -11 7 C-9.59257978 4.18515955 -7.74442408 3.72516601 -4.9375 2.375 C-4.01839844 1.92898437 -3.09929687 1.48296875 -2.15234375 1.0234375 C-1.44207031 0.68570313 -0.73179687 0.34796875 0 0 Z " fill="#95C129" transform="translate(315,203)"/>
<path d="M0 0 C3.78806451 0.60636284 6.82895704 1.71161456 10.25 3.4375 C11.12140625 3.86933594 11.9928125 4.30117188 12.890625 4.74609375 C15 6 15 6 16 8 C12.37 7.01 8.74 6.02 5 5 C5 4.34 5 3.68 5 3 C3.35 2.67 1.7 2.34 0 2 C0 1.34 0 0.68 0 0 Z " fill="#9BC63B" transform="translate(546,486)"/>
<path d="M0 0 C0.66 0.33 1.32 0.66 2 1 C1.67 1.66 1.34 2.32 1 3 C0.34 3 -0.32 3 -1 3 C-1.33 4.65 -1.66 6.3 -2 8 C-2.66 7.34 -3.32 6.68 -4 6 C-5.1446875 6.5259375 -5.1446875 6.5259375 -6.3125 7.0625 C-9 8 -9 8 -12 7 C-10.04754815 5.80285445 -8.08785003 4.61751926 -6.125 3.4375 C-5.03445313 2.77621094 -3.94390625 2.11492187 -2.8203125 1.43359375 C-1.88960938 0.96050781 -0.95890625 0.48742187 0 0 Z " fill="#8EC11F" transform="translate(327,399)"/>
<path d="M0 0 C1.65 0 3.3 0 5 0 C5 1.32 5 2.64 5 4 C6.32 4.33 7.64 4.66 9 5 C5.7 5 2.4 5 -1 5 C-0.67 3.35 -0.34 1.7 0 0 Z " fill="#8ABB0E" transform="translate(742,422)"/>
<path d="M0 0 C5.50102837 0.41257713 9.76201664 2.54722675 14 6 C14 6.66 14 7.32 14 8 C8.76481294 6.56032356 4.36973991 4.18303389 0 1 C0 0.67 0 0.34 0 0 Z " fill="#98C430" transform="translate(511,399)"/>
<path d="M0 0 C2.31625061 1.11777771 4.62784605 2.24374092 6.9375 3.375 C7.59685547 3.69210937 8.25621094 4.00921875 8.93554688 4.3359375 C13.88671875 6.7734375 13.88671875 6.7734375 15 9 C12.03 8.505 12.03 8.505 9 8 C8.67 7.01 8.34 6.02 8 5 C5.36 4.67 2.72 4.34 0 4 C0 2.68 0 1.36 0 0 Z " fill="#A3CA47" transform="translate(481,344)"/>
<path d="M0 0 C0 0.66 0 1.32 0 2 C-0.99 2 -1.98 2 -3 2 C-3.2475 2.639375 -3.495 3.27875 -3.75 3.9375 C-5 6 -5 6 -6.8125 6.6875 C-7.534375 6.790625 -8.25625 6.89375 -9 7 C-9.9075 7.185625 -10.815 7.37125 -11.75 7.5625 C-12.4925 7.706875 -13.235 7.85125 -14 8 C-11.72402354 5.50447597 -9.39278822 3.93377014 -6.4375 2.3125 C-5.65246094 1.87550781 -4.86742187 1.43851563 -4.05859375 0.98828125 C-2 0 -2 0 0 0 Z " fill="#9CC636" transform="translate(582,708)"/>
<path d="M0 0 C2.64 0.33 5.28 0.66 8 1 C8 1.99 8 2.98 8 4 C9.65 4.33 11.3 4.66 13 5 C13.33 5.99 13.66 6.98 14 8 C9.02790438 6.23570801 4.56561939 3.6060834 0 1 C0 0.67 0 0.34 0 0 Z " fill="#96C632" transform="translate(566,431)"/>
<path d="M0 0 C0.66 0.33 1.32 0.66 2 1 C1.67 1.99 1.34 2.98 1 4 C1.33 4.99 1.66 5.98 2 7 C1.01 7 0.02 7 -1 7 C-1 6.01 -1 5.02 -1 4 C-1.66 4 -2.32 4 -3 4 C-3 4.66 -3 5.32 -3 6 C-5.31 6.33 -7.62 6.66 -10 7 C-6.81404865 4.36021174 -3.69029454 1.89501612 0 0 Z " fill="#96C332" transform="translate(285,423)"/>
<path d="M0 0 C9.07692308 2 9.07692308 2 13 5 C14.3125 7.1875 14.3125 7.1875 15 9 C2.23529412 4.47058824 2.23529412 4.47058824 0 0 Z " fill="#9BC432" transform="translate(539,415)"/>
<path d="M0 0 C2.31625061 1.11777771 4.62784605 2.24374092 6.9375 3.375 C7.59685547 3.69210937 8.25621094 4.00921875 8.93554688 4.3359375 C13.88671875 6.7734375 13.88671875 6.7734375 15 9 C12.75 9.25 12.75 9.25 10 9 C8.62437146 7.71034824 7.29233607 6.37310707 6 5 C5.113125 4.649375 4.22625 4.29875 3.3125 3.9375 C2.549375 3.628125 1.78625 3.31875 1 3 C0.67 2.01 0.34 1.02 0 0 Z " fill="#A0C645" transform="translate(564,392)"/>
<path d="M0 0 C1.65 1.32 3.3 2.64 5 4 C5.33 3.01 5.66 2.02 6 1 C7.60031344 4.20062687 6.03173691 6.72271806 5 10 C4.67 10 4.34 10 4 10 C4 8.35 4 6.7 4 5 C2.35 5.33 0.7 5.66 -1 6 C-1.33 6.99 -1.66 7.98 -2 9 C-1.125 2.25 -1.125 2.25 0 0 Z " fill="#98C630" transform="translate(721,378)"/>
<path d="M0 0 C4.88973966 4.73200613 4.88973966 4.73200613 5.25 8.875 C4.97637294 12.29533822 4.28639008 13.52307741 2 16 C2.08378906 15.38511719 2.16757812 14.77023437 2.25390625 14.13671875 C2.35574219 13.32847656 2.45757813 12.52023437 2.5625 11.6875 C2.71912109 10.48673828 2.71912109 10.48673828 2.87890625 9.26171875 C3.14755178 6.83182884 3.14755178 6.83182884 2 4 C1.01 4 0.02 4 -1 4 C-0.67 2.68 -0.34 1.36 0 0 Z " fill="#A0C93F" transform="translate(762,376)"/>
<path d="M0 0 C1.9375 0.3125 1.9375 0.3125 4 1 C4.33 1.99 4.66 2.98 5 4 C4.01 5.485 4.01 5.485 3 7 C1.68 6.34 0.36 5.68 -1 5 C-0.67 3.35 -0.34 1.7 0 0 Z " fill="#85BB0C" transform="translate(723,375)"/>
<path d="M0 0 C0.66 0 1.32 0 2 0 C2.1875 2.375 2.1875 2.375 2 5 C-1 7 -1 7 -4 7 C-3.67 5.35 -3.34 3.7 -3 2 C-2.01 2 -1.02 2 0 2 C0 1.34 0 0.68 0 0 Z " fill="#84BE14" transform="translate(740,363)"/>
<path d="M0 0 C4.8274799 1.41292095 8.7162359 3.42974154 13 6 C10.21176345 7.0326802 9.1322726 7.04509293 6.25 6.0625 C5.5075 5.711875 4.765 5.36125 4 5 C4 4.34 4 3.68 4 3 C3.01 3 2.02 3 1 3 C0.67 2.01 0.34 1.02 0 0 Z " fill="#9FC53A" transform="translate(419,764)"/>
<path d="M0 0 C3.63 0 7.26 0 11 0 C10.01 0.495 10.01 0.495 9 1 C9 1.66 9 2.32 9 3 C6.36 3 3.72 3 1 3 C0.67 2.01 0.34 1.02 0 0 Z " fill="#9CC93A" transform="translate(335,712)"/>
<path d="M0 0 C0.66 0.99 1.32 1.98 2 3 C1.34 3 0.68 3 0 3 C0.061875 4.0725 0.12375 5.145 0.1875 6.25 C-0.00543309 10.10866187 -0.39665076 11.28817788 -3 14 C-3.29341888 8.32723489 -3.00559652 5.00932754 0 0 Z " fill="#95C02F" transform="translate(243,454)"/>
<path d="M0 0 C0.33 0.66 0.66 1.32 1 2 C-1.97 4.31 -4.94 6.62 -8 9 C-8.33 8.34 -8.66 7.68 -9 7 C-8.34 7 -7.68 7 -7 7 C-7.33 5.68 -7.66 4.36 -8 3 C-7.4225 2.87625 -6.845 2.7525 -6.25 2.625 C-3.97664233 1.99351176 -2.0746471 1.11141809 0 0 Z " fill="#9AC832" transform="translate(581,649)"/>
<path d="M0 0 C-1.59622656 1.03320481 -3.20229106 2.05122429 -4.8125 3.0625 C-6.15248047 3.91521484 -6.15248047 3.91521484 -7.51953125 4.78515625 C-10 6 -10 6 -13 5 C-11.68 4.67 -10.36 4.34 -9 4 C-9 3.01 -9 2.02 -9 1 C-2.25 -1.125 -2.25 -1.125 0 0 Z " fill="#9BC33B" transform="translate(289,460)"/>
<path d="M0 0 C4.30764815 1.56641751 8.06171464 3.68336156 12 6 C9.50907189 7.24546405 8.58919267 6.7767578 6 6 C6 5.34 6 4.68 6 4 C3.69 3.67 1.38 3.34 -1 3 C-0.67 2.01 -0.34 1.02 0 0 Z " fill="#9CC534" transform="translate(627,429)"/>
<path d="M0 0 C1.32 0 2.64 0 4 0 C2.50164772 4.66154042 -0.88463591 5.86610751 -5 8 C-4 6 -3 4 -2 2 C-1.34 2 -0.68 2 0 2 C0 1.34 0 0.68 0 0 Z " fill="#80B806" transform="translate(777,408)"/>
<path d="M0 0 C3.96 0 7.92 0 12 0 C12 1.32 12 2.64 12 4 C6.06 2.515 6.06 2.515 0 1 C0 0.67 0 0.34 0 0 Z " fill="#9CC83E" transform="translate(535,596)"/>
<path d="M0 0 C1.65 0 3.3 0 5 0 C1.53258866 2.95749791 -1.86873527 5.07848152 -6 7 C-5.67 5.68 -5.34 4.36 -5 3 C-3.68 3 -2.36 3 -1 3 C-0.67 2.01 -0.34 1.02 0 0 Z " fill="#9DC93D" transform="translate(333,431)"/>
<path d="M0 0 C0.33 0 0.66 0 1 0 C1 2.97 1 5.94 1 9 C3.64 9 6.28 9 9 9 C9 9.33 9 9.66 9 10 C7.54364629 10.22174933 6.08477044 10.42698698 4.625 10.625 C3.81289063 10.74101562 3.00078125 10.85703125 2.1640625 10.9765625 C1.44992187 10.98429687 0.73578125 10.99203125 0 11 C-0.66 10.34 -1.32 9.68 -2 9 C-1.7578125 6.8359375 -1.7578125 6.8359375 -1.125 4.375 C-0.92132812 3.55773437 -0.71765625 2.74046875 -0.5078125 1.8984375 C-0.34023438 1.27195312 -0.17265625 0.64546875 0 0 Z " fill="#9AC931" transform="translate(746,382)"/>
<path d="M0 0 C2.64 0 5.28 0 8 0 C8 0.99 8 1.98 8 3 C5.36 3.33 2.72 3.66 0 4 C0 2.68 0 1.36 0 0 Z " fill="#7BBD05" transform="translate(748,376)"/>
<path d="M0 0 C0.556875 0.226875 1.11375 0.45375 1.6875 0.6875 C1.0275 0.6875 0.3675 0.6875 -0.3125 0.6875 C-0.3125 1.6775 -0.3125 2.6675 -0.3125 3.6875 C-3.6125 4.3475 -6.9125 5.0075 -10.3125 5.6875 C-4.07440476 -0.55059524 -4.07440476 -0.55059524 0 0 Z " fill="#9DC73A" transform="translate(719.3125,240.3125)"/>
<path d="M0 0 C0.33 0.99 0.66 1.98 1 3 C-2.07999946 6.67230705 -4.2482602 7.56802365 -9 8 C-6.6875 5.5 -6.6875 5.5 -4 3 C-3.01 3 -2.02 3 -1 3 C-0.67 2.01 -0.34 1.02 0 0 Z " fill="#91C025" transform="translate(556,628)"/>
<path d="M0 0 C2.77153305 1.38576653 3.48074938 3.34131141 5 6 C5.99 7.485 5.99 7.485 7 9 C6.01 9.495 6.01 9.495 5 10 C4.34 9.01 3.68 8.02 3 7 C0.94074861 6.27617533 0.94074861 6.27617533 -1 6 C-0.67 4.02 -0.34 2.04 0 0 Z " fill="#9AC735" transform="translate(453,538)"/>
<path d="M0 0 C1.6254308 0.14095064 3.25034051 0.28792087 4.875 0.4375 C5.77992188 0.51871094 6.68484375 0.59992187 7.6171875 0.68359375 C10 1 10 1 12 2 C12 2.99 12 3.98 12 5 C10.56068883 4.54738642 9.12361001 4.08767021 7.6875 3.625 C6.88699219 3.36976563 6.08648438 3.11453125 5.26171875 2.8515625 C3 2 3 2 0 0 Z " fill="#A2CA47" transform="translate(526,513)"/>
<path d="M0 0 C0.66 0.66 1.32 1.32 2 2 C0.71186658 2.83878455 -0.58063256 3.67086783 -1.875 4.5 C-2.59429687 4.9640625 -3.31359375 5.428125 -4.0546875 5.90625 C-6 7 -6 7 -8 7 C-7 4 -7 4 -4 2 C-2.68 2 -1.36 2 0 2 C0 1.34 0 0.68 0 0 Z " fill="#9DC638" transform="translate(441,369)"/>
<path d="M0 0 C1.44122613 0.59522337 2.87785868 1.20157619 4.3125 1.8125 C5.11300781 2.14894531 5.91351563 2.48539063 6.73828125 2.83203125 C8.96515745 3.98200704 10.34987767 5.13626961 12 7 C8.64566891 6.05066101 5.30753495 5.10251165 2 4 C2 3.34 2 2.68 2 2 C1.34 2 0.68 2 0 2 C0 1.34 0 0.68 0 0 Z " fill="#9AC636" transform="translate(399,199)"/>
<path d="M0 0 C0.66 0.33 1.32 0.66 2 1 C0.93106782 2.03590338 -0.15578488 3.05333942 -1.25 4.0625 C-2.15492188 4.91521484 -2.15492188 4.91521484 -3.078125 5.78515625 C-4.02945312 6.38650391 -4.02945312 6.38650391 -5 7 C-6.32 6.67 -7.64 6.34 -9 6 C-6.03 4.02 -3.06 2.04 0 0 Z " fill="#90C21E" transform="translate(346,185)"/>
<path d="M0 0 C-1.6188996 1.03048037 -3.24532489 2.04914678 -4.875 3.0625 C-5.77992188 3.63097656 -6.68484375 4.19945312 -7.6171875 4.78515625 C-8.40351562 5.18605469 -9.18984375 5.58695313 -10 6 C-10.66 5.67 -11.32 5.34 -12 5 C-8.44127886 1.27181595 -5.29422909 -1.76474303 0 0 Z " fill="#98C337" transform="translate(530,776)"/>
<path d="M0 0 C0.99 0.66 1.98 1.32 3 2 C1.71475739 2.86380259 0.42157581 3.71580369 -0.875 4.5625 C-1.59429688 5.03816406 -2.31359375 5.51382813 -3.0546875 6.00390625 C-3.69664062 6.33261719 -4.33859375 6.66132812 -5 7 C-5.66 6.67 -6.32 6.34 -7 6 C-4.69 4.02 -2.38 2.04 0 0 Z " fill="#9CC438" transform="translate(556,757)"/>
<path d="M0 0 C-2.3129482 2.3129482 -3.47904875 2.49580975 -6.625 3.125 C-7.44226563 3.29257812 -8.25953125 3.46015625 -9.1015625 3.6328125 C-10.04128906 3.81457031 -10.04128906 3.81457031 -11 4 C-10.67 3.01 -10.34 2.02 -10 1 C-6.52674819 -0.1577506 -3.63932552 -0.06866652 0 0 Z " fill="#9DC542" transform="translate(371,740)"/>
<path d="M0 0 C2.48862878 3.23521742 4.75421558 6.59260295 7 10 C5.35 9.67 3.7 9.34 2 9 C2 8.34 2 7.68 2 7 C1.34 6.67 0.68 6.34 0 6 C0 4.02 0 2.04 0 0 Z " fill="#97C32E" transform="translate(449,621)"/>
<path d="M0 0 C0 0.66 0 1.32 0 2 C1.65 2 3.3 2 5 2 C5 2.66 5 3.32 5 4 C0.71 3.34 -3.58 2.68 -8 2 C-4 0 -4 0 0 0 Z " fill="#9EC838" transform="translate(523,591)"/>
<path d="M0 0 C4.37934119 0.51958285 8.68803391 1.05675742 13 2 C13 2.33 13 2.66 13 3 C9.04 3 5.08 3 1 3 C0.67 2.01 0.34 1.02 0 0 Z " fill="#A0CA44" transform="translate(538,562)"/>
<path d="M0 0 C0.66 0.33 1.32 0.66 2 1 C2 1.66 2 2.32 2 3 C2.9590625 3.1546875 2.9590625 3.1546875 3.9375 3.3125 C4.618125 3.539375 5.29875 3.76625 6 4 C6.33 4.99 6.66 5.98 7 7 C2.56909529 5.79157144 0.01887244 4.48331435 -3 1 C-2.01 0.67 -1.02 0.34 0 0 Z " fill="#9FC83D" transform="translate(583,438)"/>
<path d="M0 0 C1.9375 0.8125 1.9375 0.8125 4 2 C4.33 2.99 4.66 3.98 5 5 C3.35 5.33 1.7 5.66 0 6 C-1.125 2.25 -1.125 2.25 0 0 Z " fill="#82BC06" transform="translate(728,412)"/>
<path d="M0 0 C1.32 0.33 2.64 0.66 4 1 C4.33 3.31 4.66 5.62 5 8 C3.68 7.67 2.36 7.34 1 7 C0.67 4.69 0.34 2.38 0 0 Z " fill="#98C834" transform="translate(760,391)"/>
<path d="M0 0 C0.33 1.98 0.66 3.96 1 6 C-2.37503669 4.8141763 -4.64722731 3.72426311 -7 1 C-2.25 0 -2.25 0 0 0 Z " fill="#9AC43D" transform="translate(326,308)"/>
<path d="M0 0 C5 2 5 2 10 4 C10 4.33 10 4.66 10 5 C7.36 5 4.72 5 2 5 C2 4.01 2 3.02 2 2 C1.34 2 0.68 2 0 2 C0 1.34 0 0.68 0 0 Z " fill="#9CC634" transform="translate(459,634)"/>
<path d="M0 0 C0.99 0 1.98 0 3 0 C2.67 1.65 2.34 3.3 2 5 C0.35 5 -1.3 5 -3 5 C-1.125 1.125 -1.125 1.125 0 0 Z " fill="#94C224" transform="translate(430,502)"/>
<path d="M0 0 C1.67542976 0.28604898 3.34385343 0.61781233 5 1 C1.8745041 3.64465038 -1.08788267 4.84414715 -5 6 C-5 5.01 -5 4.02 -5 3 C-4.360625 2.690625 -3.72125 2.38125 -3.0625 2.0625 C-1.06389179 1.1654837 -1.06389179 1.1654837 0 0 Z " fill="#9BC530" transform="translate(377,405)"/>
<path d="M0 0 C1.2065625 0.0309375 1.2065625 0.0309375 2.4375 0.0625 C2.7675 1.0525 3.0975 2.0425 3.4375 3.0625 C2.4475 3.0625 1.4575 3.0625 0.4375 3.0625 C0.4375 3.7225 0.4375 4.3825 0.4375 5.0625 C-0.2225 5.0625 -0.8825 5.0625 -1.5625 5.0625 C-2.2225 3.7425 -2.8825 2.4225 -3.5625 1.0625 C-2.5625 0.0625 -2.5625 0.0625 0 0 Z " fill="#7CBB07" transform="translate(766.5625,363.9375)"/>
<path d="M0 0 C1.98 0 3.96 0 6 0 C6.66 1.65 7.32 3.3 8 5 C4.62496331 3.8141763 2.35277269 2.72426311 0 0 Z " fill="#95C32B" transform="translate(297,296)"/>
<path d="M0 0 C0.99 0.33 1.98 0.66 3 1 C-0.19990508 3.74277578 -3.00499382 5.6302836 -7 7 C-7 6.34 -7 5.68 -7 5 C-4 3 -4 3 -1 3 C-0.67 2.01 -0.34 1.02 0 0 Z " fill="#9BC535" transform="translate(513,782)"/>
<path d="M0 0 C0 0.99 0 1.98 0 3 C-1.98 3.33 -3.96 3.66 -6 4 C-6 4.66 -6 5.32 -6 6 C-7.32 5.67 -8.64 5.34 -10 5 C-8.71186658 4.16121545 -7.41936744 3.32913217 -6.125 2.5 C-5.40570312 2.0359375 -4.68640625 1.571875 -3.9453125 1.09375 C-2 0 -2 0 0 0 Z " fill="#9CC73A" transform="translate(526,740)"/>
<path d="M0 0 C2 1 2 1 4 4 C-0.75 7 -0.75 7 -3 7 C-3 6.34 -3 5.68 -3 5 C-2.34 5 -1.68 5 -1 5 C-0.67 3.35 -0.34 1.7 0 0 Z " fill="#96C128" transform="translate(585,738)"/>
<path d="M0 0 C0.66 0.33 1.32 0.66 2 1 C1.67 1.99 1.34 2.98 1 4 C-0.65 4 -2.3 4 -4 4 C-4 4.66 -4 5.32 -4 6 C-5.32 5.67 -6.64 5.34 -8 5 C-6.71475739 4.13619741 -5.42157581 3.28419631 -4.125 2.4375 C-3.04605469 1.72400391 -3.04605469 1.72400391 -1.9453125 0.99609375 C-1.30335938 0.66738281 -0.66140625 0.33867188 0 0 Z " fill="#9EC53D" transform="translate(555,722)"/>
<path d="M0 0 C1.32 0.66 2.64 1.32 4 2 C3.67 2.66 3.34 3.32 3 4 C0.36 4 -2.28 4 -5 4 C-3.35 2.68 -1.7 1.36 0 0 Z " fill="#90BF21" transform="translate(608,692)"/>
<path d="M0 0 C1.32 0 2.64 0 4 0 C4.33 0.99 4.66 1.98 5 3 C1.04 3 -2.92 3 -7 3 C-7 2.67 -7 2.34 -7 2 C-4.69 2 -2.38 2 0 2 C0 1.34 0 0.68 0 0 Z " fill="#82BC13" transform="translate(493,586)"/>
<path d="M0 0 C0.33 0 0.66 0 1 0 C1.36630156 3.93774177 1.30233203 5.56539771 -1 8.875 C-1.66 9.57625 -2.32 10.2775 -3 11 C-2.44894091 7.0507432 -1.61064629 3.65079826 0 0 Z " fill="#9CC734" transform="translate(423,512)"/>
<path d="M0 0 C0.99 0.66 1.98 1.32 3 2 C2.67 3.32 2.34 4.64 2 6 C0.68 6 -0.64 6 -2 6 C-2.33 4.68 -2.66 3.36 -3 2 C-2.01 2 -1.02 2 0 2 C0 1.34 0 0.68 0 0 Z " fill="#82B805" transform="translate(770,416)"/>
<path d="M0 0 C2.31 0.33 4.62 0.66 7 1 C7 1.99 7 2.98 7 4 C7.99 4 8.98 4 10 4 C10 4.66 10 5.32 10 6 C6.40992874 4.66654496 3.20429093 3.1056769 0 1 C0 0.67 0 0.34 0 0 Z " fill="#96C02B" transform="translate(330,315)"/>
<path d="M0 0 C6.52307692 0.61538462 6.52307692 0.61538462 8.9375 2.5625 C9.288125 3.036875 9.63875 3.51125 10 4 C7 5 7 5 5.17578125 4.22265625 C3.45052083 3.1484375 1.72526042 2.07421875 0 1 C0 0.67 0 0.34 0 0 Z " fill="#9BC934" transform="translate(390,784)"/>
<path d="M0 0 C0 0.66 0 1.32 0 2 C-4.15267176 5.11450382 -4.15267176 5.11450382 -7.3125 4.6875 C-7.869375 4.460625 -8.42625 4.23375 -9 4 C-2.25 0 -2.25 0 0 0 Z " fill="#9AC835" transform="translate(603,696)"/>
<path d="M0 0 C-0.33 0.99 -0.66 1.98 -1 3 C-1.66 3 -2.32 3 -3 3 C-3 3.66 -3 4.32 -3 5 C-4.98 5 -6.96 5 -9 5 C-2.87096774 0 -2.87096774 0 0 0 Z " fill="#95C22A" transform="translate(627,682)"/>
<path d="M0 0 C5.75 1.75 5.75 1.75 8 4 C5.3333581 5.33332095 3.83319697 4.67102033 1 4 C0.67 2.68 0.34 1.36 0 0 Z " fill="#8EC024" transform="translate(565,570)"/>
<path d="M0 0 C0.66 0.33 1.32 0.66 2 1 C1.67 2.32 1.34 3.64 1 5 C-1.31 5.33 -3.62 5.66 -6 6 C-4 4 -2 2 0 0 Z " fill="#A2C943" transform="translate(438,494)"/>
<path d="M0 0 C2.64 0.33 5.28 0.66 8 1 C8.33 2.32 8.66 3.64 9 5 C5.54074837 3.7508258 2.85306797 2.32472205 0 0 Z " fill="#97C234" transform="translate(502,394)"/>
<path d="M0 0 C0.66 0.33 1.32 0.66 2 1 C0.9375 2.9375 0.9375 2.9375 -1 5 C-4.6875 5.75 -4.6875 5.75 -8 6 C-5.63404067 3.38499232 -3.13950774 1.61000397 0 0 Z " fill="#707070" transform="translate(694,191)"/>
<path d="M0 0 C3.465 1.98 3.465 1.98 7 4 C6.67 4.66 6.34 5.32 6 6 C4.68 5.67 3.36 5.34 2 5 C2 4.34 2 3.68 2 3 C1.34 3 0.68 3 0 3 C0 2.01 0 1.02 0 0 Z " fill="#98C738" transform="translate(371,182)"/>
<path d="M0 0 C-2.55068845 2.35448165 -3.71017358 2.98327924 -7.25 3.1875 C-8.1575 3.125625 -9.065 3.06375 -10 3 C-6.86618053 -0.60389239 -4.59270471 -1.53090157 0 0 Z " fill="#95C12B" transform="translate(474,773)"/>
<path d="M0 0 C0.99 0.33 1.98 0.66 3 1 C3 1.66 3 2.32 3 3 C1.37373596 4.38232443 -0.2925002 5.71937515 -2 7 C-2.66 6.67 -3.32 6.34 -4 6 C-3.67 5.01 -3.34 4.02 -3 3 C-2.01 3 -1.02 3 0 3 C0 2.01 0 1.02 0 0 Z " fill="#98C433" transform="translate(652,700)"/>
<path d="M0 0 C2.97 0.33 5.94 0.66 9 1 C9 1.66 9 2.32 9 3 C2.84765625 2.4140625 2.84765625 2.4140625 1 2 C0.67 1.34 0.34 0.68 0 0 Z " fill="#9AC630" transform="translate(526,481)"/>
<path d="M0 0 C0 1.32 0 2.64 0 4 C-1.98 4.33 -3.96 4.66 -6 5 C-3.74193548 0 -3.74193548 0 0 0 Z " fill="#96C128" transform="translate(272,432)"/>
<path d="M0 0 C0.66 0.33 1.32 0.66 2 1 C-0.97 3.475 -0.97 3.475 -4 6 C-4.99 5.34 -5.98 4.68 -7 4 C-1.7265625 0.77734375 -1.7265625 0.77734375 0 0 Z " fill="#9DC63A" transform="translate(294,418)"/>
<path d="M0 0 C3.37503669 1.1858237 5.64722731 2.27573689 8 5 C5.625 5.125 5.625 5.125 3 5 C1 3 1 3 0 0 Z " fill="#A3C843" transform="translate(595,410)"/>
<path d="M0 0 C0.33 0.99 0.66 1.98 1 3 C-0.9375 6.1875 -0.9375 6.1875 -3 9 C-3.66 8.01 -4.32 7.02 -5 6 C-4.360625 5.7525 -3.72125 5.505 -3.0625 5.25 C-0.81258459 4.18437567 -0.81258459 4.18437567 -0.25 1.875 C-0.1675 1.25625 -0.085 0.6375 0 0 Z " fill="#A0CA3C" transform="translate(783,406)"/>
<path d="M0 0 C1.625 2 1.625 2 3 4 C2.01 4.33 1.02 4.66 0 5 C-2.6875 3.0625 -2.6875 3.0625 -5 1 C-2 0 -2 0 0 0 Z " fill="#98C72E" transform="translate(533,408)"/>
<path d="M0 0 C0 0.66 0 1.32 0 2 C-0.66 2 -1.32 2 -2 2 C-2 2.66 -2 3.32 -2 4 C-2.66 4 -3.32 4 -4 4 C-4.33 4.99 -4.66 5.98 -5 7 C-5.66 6.34 -6.32 5.68 -7 5 C-2.25 0 -2.25 0 0 0 Z " fill="#90C027" transform="translate(360,381)"/>
<path d="M0 0 C0 0.66 0 1.32 0 2 C1.32 2.66 2.64 3.32 4 4 C2.25 4.75 2.25 4.75 0 5 C-2.25 3.0625 -2.25 3.0625 -4 1 C-2 0 -2 0 0 0 Z " fill="#97C32D" transform="translate(484,380)"/>
<path d="M0 0 C0.99 0 1.98 0 3 0 C3 0.66 3 1.32 3 2 C4.32 2.66 5.64 3.32 7 4 C5.35 4.33 3.7 4.66 2 5 C1.34 3.35 0.68 1.7 0 0 Z " fill="#5D5D5D" transform="translate(191,182)"/>
<path d="M0 0 C3.96 1.98 3.96 1.98 8 4 C7.01 4.66 6.02 5.32 5 6 C2.5 4.6875 2.5 4.6875 0 3 C0 2.01 0 1.02 0 0 Z " fill="#98C328" transform="translate(440,776)"/>
<path d="M0 0 C2.46278801 2.46278801 2.99771255 4.70676982 4 8 C2.02 6.35 0.04 4.7 -2 3 C-1.34 2.01 -0.68 1.02 0 0 Z " fill="#98C02E" transform="translate(370,767)"/>
<path d="M0 0 C0.33 0.99 0.66 1.98 1 3 C0.01 3.66 -0.98 4.32 -2 5 C-3.32 4.34 -4.64 3.68 -6 3 C-4.02 2.01 -2.04 1.02 0 0 Z " fill="#9EC632" transform="translate(485,763)"/>
<path d="M0 0 C2.01822917 0.06510417 4.03645833 0.13020833 6.0546875 0.1953125 C4.4296875 1.7578125 4.4296875 1.7578125 2.0546875 3.1953125 C-1.1953125 2.8828125 -1.1953125 2.8828125 -3.9453125 2.1953125 C-1.9453125 0.1953125 -1.9453125 0.1953125 0 0 Z " fill="#92C224" transform="translate(375.9453125,764.8046875)"/>
<path d="M0 0 C5.75 1.75 5.75 1.75 8 4 C4.14354879 4.22036864 1.50776784 3.60355101 -2 2 C-1.34 1.34 -0.68 0.68 0 0 Z " fill="#A5C74D" transform="translate(400,753)"/>
<path d="M0 0 C0.556875 0.226875 1.11375 0.45375 1.6875 0.6875 C-0.61618736 1.75402192 -2.95268187 2.75171005 -5.3125 3.6875 C-5.9725 3.3575 -6.6325 3.0275 -7.3125 2.6875 C-2.88173077 -0.38942308 -2.88173077 -0.38942308 0 0 Z " fill="#94BE29" transform="translate(611.3125,727.3125)"/>
<path d="M0 0 C0 0.66 0 1.32 0 2 C-0.66 2 -1.32 2 -2 2 C-2 2.66 -2 3.32 -2 4 C-3.98 4.33 -5.96 4.66 -8 5 C-3.22727273 0 -3.22727273 0 0 0 Z " fill="#9EC935" transform="translate(618,687)"/>
<path d="M0 0 C2.0625 1.75 2.0625 1.75 4 4 C3.75 6.25 3.75 6.25 3 8 C2.34 8 1.68 8 1 8 C0.26919734 6.02253397 -0.39421747 4.01927511 -1 2 C-0.67 1.34 -0.34 0.68 0 0 Z " fill="#8BC110" transform="translate(633,671)"/>
<path d="M0 0 C0.66 0.99 1.32 1.98 2 3 C0.69593116 5.01920337 -0.63823419 7.01924973 -2 9 C-2.33 9 -2.66 9 -3 9 C-3 7.35 -3 5.7 -3 4 C-2.01 4 -1.02 4 0 4 C0 2.68 0 1.36 0 0 Z " fill="#97C52E" transform="translate(585,640)"/>
<path d="M0 0 C0.99 0 1.98 0 3 0 C3.33 2.64 3.66 5.28 4 8 C0 3.375 0 3.375 0 0 Z " fill="#98C440" transform="translate(418,636)"/>
<path d="M0 0 C0.66 0 1.32 0 2 0 C2.33 3.63 2.66 7.26 3 11 C0.81024227 7.71536341 0.00193437 4.79303725 -1 1 C-0.67 0.67 -0.34 0.34 0 0 Z " fill="#A6CE4E" transform="translate(551,533)"/>
<path d="M0 0 C-1 3 -1 3 -3.375 4.25 C-6 5 -6 5 -9 4 C-2.25 0 -2.25 0 0 0 Z " fill="#A4C842" transform="translate(324,402)"/>
<path d="M0 0 C5.53846154 0.61538462 5.53846154 0.61538462 7.875 2.5625 C8.431875 3.2740625 8.431875 3.2740625 9 4 C8.01 4.495 8.01 4.495 7 5 C4.5249829 3.88568235 2.32116581 2.41849022 0 1 C0 0.67 0 0.34 0 0 Z " fill="#9FC641" transform="translate(486,385)"/>
<path d="M0 0 C-0.33 1.32 -0.66 2.64 -1 4 C-2.32 4 -3.64 4 -5 4 C-5 3.01 -5 2.02 -5 1 C-3 0 -3 0 0 0 Z " fill="#81BD07" transform="translate(779,373)"/>
<path d="M0 0 C1.33332095 2.6666419 0.67102033 4.16680303 0 7 C-1.32 6.67 -2.64 6.34 -4 6 C-2.84826645 3.53199953 -1.95216435 1.95216435 0 0 Z " fill="#8FC328" transform="translate(728,369)"/>
<path d="M0 0 C-0.33 1.32 -0.66 2.64 -1 4 C-2.32 3.67 -3.64 3.34 -5 3 C-5.33 3.66 -5.66 4.32 -6 5 C-6.66 4.34 -7.32 3.68 -8 3 C-2.25 0 -2.25 0 0 0 Z " fill="#6E6E6E" transform="translate(129,207)"/>
</svg>
