<?xml version="1.0" encoding="UTF-8"?>
<svg version="1.1" xmlns="http://www.w3.org/2000/svg" width="1200" height="1106">
<path d="M0 0 C2.46579677 1.89473932 4.99211035 3.70235357 7.51953125 5.51367188 C12.70276859 9.25755803 17.69046434 13.22304463 22.64453125 17.26367188 C26.28299934 15.65136493 29.15332529 13.41112257 32.26953125 10.95117188 C45.294544 0.79339508 58.75513087 -8.79704928 72.64453125 -17.73632812 C73.75393066 -18.4544165 73.75393066 -18.4544165 74.88574219 -19.18701172 C111.64262301 -42.85312508 151.56261298 -62.0897821 194.64453125 -70.73632812 C195.42666992 -70.90003906 196.20880859 -71.06375 197.01464844 -71.23242188 C220.0938556 -75.89255382 247.71646177 -76.46572933 270.64453125 -70.73632812 C271.42538086 -70.54828613 272.20623047 -70.36024414 273.01074219 -70.16650391 C299.59216761 -63.56056248 322.39910185 -50.0871037 341.64453125 -30.73632812 C342.51464844 -29.86621094 343.38476562 -28.99609375 344.28125 -28.09960938 C391.08926024 21.05982367 398.83151769 95.70061234 397.55371094 160.36254883 C397.03834697 177.16003038 395.10911097 193.86758604 393.3289032 210.56799316 C392.63862241 217.12511873 392.09423467 223.68528 391.64453125 230.26367188 C392.28962646 230.51310547 392.93472168 230.76253906 393.59936523 231.01953125 C442.60882547 250.12091801 491.35957568 274.95171897 530.18359375 310.98632812 C532.38412571 313.02269341 534.62181828 314.99629041 536.89453125 316.95117188 C543.37503687 322.6166849 548.95000295 328.68323184 554.3359375 335.40429688 C555.79354616 337.20965989 557.27753113 338.99432147 558.796875 340.74804688 C586.75530286 373.30722869 599.04164319 413.80054612 596.64453125 456.26367188 C596.13316762 462.38277426 595.10439636 468.30351394 593.64453125 474.26367188 C593.47824219 474.95783203 593.31195312 475.65199219 593.140625 476.3671875 C581.77445874 522.29491857 548.63277083 560.34442296 511.64453125 588.26367188 C510.75145264 588.94212158 510.75145264 588.94212158 509.84033203 589.63427734 C477.43552487 614.16648422 440.86619474 633.2222775 403.45703125 648.88867188 C402.41039307 649.32711426 401.36375488 649.76555664 400.28540039 650.21728516 C392.9016914 653.26367188 392.9016914 653.26367188 390.64453125 653.26367188 C390.81057861 654.4461853 390.81057861 654.4461853 390.97998047 655.65258789 C402.40035044 737.55006935 405.06002162 832.0758387 352.82666016 901.42211914 C332.86190916 927.35494276 306.26071071 944.75345214 274.64453125 953.26367188 C273.83628906 953.48667969 273.02804687 953.7096875 272.1953125 953.93945312 C246.23770722 960.75280202 215.58145541 959.24747435 189.64453125 953.26367188 C188.59442871 953.02229492 187.54432617 952.78091797 186.46240234 952.53222656 C137.04506528 940.81706838 91.42347184 916.08182571 50.64453125 886.26367188 C49.8354834 885.67634277 49.02643555 885.08901367 48.19287109 884.48388672 C45.63141307 882.62379769 43.07441445 880.75777972 40.51953125 878.88867188 C39.73731201 878.31753662 38.95509277 877.74640137 38.14916992 877.15795898 C33.46860246 873.70776406 29.01444816 870.10038938 24.64453125 866.26367188 C21.7915321 867.59244984 19.43260812 869.09175522 16.984375 871.06445312 C16.2828833 871.62293945 15.5813916 872.18142578 14.85864258 872.75683594 C14.10736084 873.3572168 13.3560791 873.95759766 12.58203125 874.57617188 C3.9270941 881.39976425 -5.01283556 887.68299792 -14.17578125 893.80126953 C-16.14276055 895.12096106 -18.09537017 896.45859062 -20.04296875 897.80664062 C-68.39563392 931.05372587 -126.34297696 957.79242433 -185.91796875 957.63867188 C-187.16862625 957.63735764 -187.16862625 957.63735764 -188.44454956 957.63601685 C-201.76276731 957.58997715 -214.45323285 956.82361894 -227.35546875 953.26367188 C-228.64130859 952.91755859 -228.64130859 952.91755859 -229.953125 952.56445312 C-249.21068628 947.20410102 -267.18706848 938.35013485 -282.35546875 925.26367188 C-283.70511719 924.10351562 -283.70511719 924.10351562 -285.08203125 922.91992188 C-287.54953493 920.74315125 -289.95939734 918.51855364 -292.35546875 916.26367188 C-293.33193359 915.38388672 -293.33193359 915.38388672 -294.328125 914.48632812 C-306.04255769 903.49352373 -314.80054961 889.31667218 -322.35546875 875.26367188 C-322.70561035 874.61414551 -323.05575195 873.96461914 -323.41650391 873.29541016 C-341.02842882 839.93298329 -347.35184614 801.26002372 -349.60546875 764.01367188 C-349.6466684 763.34032806 -349.68786804 762.66698425 -349.73031616 761.97323608 C-350.3179161 752.05967032 -350.46241656 742.18895076 -350.35546875 732.26367188 C-350.34483398 731.2565918 -350.33419922 730.24951172 -350.32324219 729.21191406 C-350.0822775 714.55408315 -348.88064922 700.0284849 -347.41796875 685.45117188 C-347.28992859 684.16629883 -347.28992859 684.16629883 -347.15930176 682.85546875 C-346.1620152 672.94062365 -345.00948048 663.09370143 -343.35546875 653.26367188 C-344.55558594 652.88855469 -345.75570312 652.5134375 -346.9921875 652.12695312 C-353.53685253 649.93944571 -359.8438549 647.20086985 -366.16796875 644.45117188 C-366.8196402 644.16811188 -367.47131165 643.88505188 -368.14273071 643.59341431 C-436.52475533 613.78650314 -509.872629 568.35281052 -539.35546875 496.26367188 C-553.81060624 458.98300744 -552.99528868 418.79387092 -537.16796875 382.11132812 C-530.00748572 366.12329379 -520.71960508 351.59871008 -509.35546875 338.26367188 C-508.42025978 337.14414172 -507.48538958 336.02432851 -506.55078125 334.90429688 C-498.18388135 324.94402244 -489.35910333 315.60808848 -479.35546875 307.26367188 C-478.54795166 306.58546387 -478.54795166 306.58546387 -477.72412109 305.89355469 C-438.58522273 273.129513 -392.27371187 247.70450301 -344.35546875 230.26367188 C-344.86089447 222.87763977 -345.51156102 215.51939553 -346.29296875 208.15820312 C-348.29886249 189.19788924 -350.15394339 170.34751268 -350.35546875 151.26367188 C-350.37528809 149.42434082 -350.37528809 149.42434082 -350.39550781 147.54785156 C-350.46293608 138.18367909 -350.17852103 128.86253065 -349.60546875 119.51367188 C-349.56256714 118.80911865 -349.51966553 118.10456543 -349.47546387 117.37866211 C-345.79194186 58.60689991 -328.99042671 -1.00509932 -283.5390625 -41.16992188 C-265.90756465 -55.73853763 -245.48367936 -65.33041348 -223.35546875 -70.73632812 C-222.64648438 -70.91421875 -221.9375 -71.09210938 -221.20703125 -71.27539062 C-144.73088223 -89.45651284 -58.45299279 -45.45610839 0 0 Z M-251.35546875 5.26367188 C-252.28552734 6.07191406 -252.28552734 6.07191406 -253.234375 6.89648438 C-280.87532384 32.42107286 -289.90480177 75.58250905 -293.35546875 111.26367188 C-293.44973145 112.21749756 -293.54399414 113.17132324 -293.64111328 114.15405273 C-294.49958093 123.87285863 -294.59567553 133.57656497 -294.60546875 143.32617188 C-294.6071405 144.20975372 -294.60881226 145.09333557 -294.61053467 146.00369263 C-294.61200579 159.12124589 -294.10200785 172.13173441 -292.98046875 185.20117188 C-292.91734497 185.94803253 -292.85422119 186.69489319 -292.78918457 187.46438599 C-292.09375197 195.49315754 -291.19734019 203.40557211 -289.35546875 211.26367188 C-281.13063568 209.84387179 -273.16173961 207.60078447 -265.13607788 205.35366821 C-237.35615172 197.61766486 -209.2526661 191.50448197 -180.85546875 186.51367188 C-180.03120392 186.36735321 -179.20693909 186.22103455 -178.35769653 186.07028198 C-169.54620653 184.51416441 -160.7594241 183.14663273 -151.86328125 182.17773438 C-149.61467727 181.91234852 -147.36651419 181.64346951 -145.1184082 181.37390137 C-143.05749133 181.14714638 -140.99873679 180.98552183 -138.93164062 180.82714844 C-132.38351839 180.05548989 -128.2833981 178.94423876 -124.1169281 173.81840515 C-122.07943359 171.03652274 -120.22025149 168.16463644 -118.35546875 165.26367188 C-117.23578539 163.81829541 -116.09498025 162.38869328 -114.921875 160.98632812 C-114.42405518 160.37813232 -113.92623535 159.76993652 -113.41333008 159.14331055 C-112.91986084 158.54365479 -112.4263916 157.94399902 -111.91796875 157.32617188 C-108.23605178 152.83016819 -104.5945621 148.31130395 -101.03588867 143.71704102 C-96.45800165 137.80737534 -91.71002573 132.19831208 -86.625 126.71289062 C-84.64166413 124.57252644 -82.70586686 122.4043028 -80.79296875 120.20117188 C-77.46667105 116.37631902 -74.0811679 112.60730307 -70.68359375 108.84570312 C-69.12632286 107.11859564 -67.57426019 105.38677837 -66.02734375 103.65039062 C-62.17196149 99.32947751 -58.26683164 95.12355663 -54.13061523 91.07128906 C-52.40326666 89.3123441 -50.80214039 87.4948292 -49.203125 85.61914062 C-45.13720352 80.94569233 -40.80781441 76.56879047 -36.41796875 72.20117188 C-35.27811523 71.05551758 -35.27811523 71.05551758 -34.11523438 69.88671875 C-29.36068468 65.14028955 -24.4737668 60.61549104 -19.35546875 56.26367188 C-23.48987033 51.85802725 -28.04706759 48.32459583 -32.91796875 44.76367188 C-33.75005859 44.15418701 -34.58214844 43.54470215 -35.43945312 42.91674805 C-50.4518599 32.02713051 -66.14526534 22.26064456 -82.35546875 13.26367188 C-83.17063965 12.80750488 -83.98581055 12.35133789 -84.82568359 11.88134766 C-110.68391104 -2.4888052 -138.94271454 -13.63756082 -168.35546875 -17.73632812 C-169.15082031 -17.86652344 -169.94617188 -17.99671875 -170.765625 -18.13085938 C-199.95723998 -22.34930085 -229.48899871 -14.6017069 -251.35546875 5.26367188 Z M66.64453125 55.26367188 C69.89050345 59.27842696 73.20455211 62.85226702 77.08203125 66.26367188 C86.27141988 74.38096517 95.13091093 83.07061396 103.04296875 92.44335938 C104.98490547 94.65053623 107.05191249 96.69904801 109.14453125 98.76367188 C112.53721524 102.11623967 115.73553809 105.5584287 118.83984375 109.17773438 C120.86104401 111.51392688 122.93831964 113.79332039 125.01953125 116.07617188 C128.87475511 120.34677339 132.5203564 124.75140856 136.13671875 129.22460938 C139.0328566 132.73425929 142.02151956 136.1536901 145.01953125 139.57617188 C148.67470043 143.76522433 152.28969833 147.97325236 155.72909546 152.34230042 C156.62100048 153.47424347 157.51780347 154.60236066 158.42147827 155.72492981 C160.92354282 158.87970049 163.15010021 162.04132044 165.18164062 165.52001953 C169.23887891 172.11919971 173.15343728 177.90962826 180.84570312 180.24365234 C185.94282866 181.36785049 191.08012024 181.96645089 196.2734375 182.4491272 C200.9141282 182.88213342 205.52868223 183.48538404 210.15161133 184.07527161 C212.52536337 184.37579052 214.90023554 184.66758815 217.27612305 184.95072937 C228.51368632 186.29738472 239.56231126 188.29977335 250.64453125 190.57617188 C252.00221619 190.85152771 252.00221619 190.85152771 253.3873291 191.13244629 C278.57880872 196.26506288 303.79012364 202.1763705 328.36785889 209.75311279 C331.24522029 210.62842978 333.61658178 211.26367188 336.64453125 211.26367188 C338.456997 202.4258655 339.48500046 193.55434271 340.26953125 184.57617188 C340.33490082 183.83177856 340.40027039 183.08738525 340.46762085 182.32043457 C342.71966889 155.89538178 343.21040616 128.58622401 339.64453125 102.26367188 C339.515625 101.30187012 339.38671875 100.34006836 339.25390625 99.34912109 C334.00616037 61.69775918 321.87767895 22.4548632 290.64453125 -1.73632812 C219.55079665 -49.94401113 123.2713216 10.41690726 66.64453125 55.26367188 Z M20.54296875 94.20507812 C19.29386719 95.50251953 19.29386719 95.50251953 18.01953125 96.82617188 C15.05949398 99.8935922 12.07363271 102.79354654 8.84375 105.57617188 C4.39400371 109.42852767 0.23113027 113.52954381 -3.91796875 117.70117188 C-4.63404297 118.41337891 -5.35011719 119.12558594 -6.08789062 119.859375 C-10.17421658 123.9531374 -14.0673157 128.15259244 -17.84350586 132.53344727 C-19.59548702 134.53833835 -21.44037838 136.41461911 -23.35546875 138.26367188 C-26.56720195 141.43225319 -29.56861943 144.71351811 -32.5078125 148.13476562 C-34.58442037 150.52747448 -36.71877485 152.86201628 -38.85546875 155.20117188 C-46.0774971 162.06313792 -46.0774971 162.06313792 -50.35546875 170.26367188 C-38.95660989 170.39111253 -27.58221154 170.20564046 -16.18984985 169.83486938 C11.10426737 168.95531394 38.35686001 169.0172575 65.6496582 169.90551758 C76.31780716 170.25064355 86.9710154 170.38300311 97.64453125 170.26367188 C95.38918007 166.1514149 92.59820247 162.83840953 89.39453125 159.45117188 C88.39904241 158.38281065 87.40424947 157.31380057 86.41015625 156.24414062 C85.93126953 155.73028809 85.45238281 155.21643555 84.95898438 154.68701172 C83.31782388 152.90990071 81.7256778 151.09427116 80.14453125 149.26367188 C64.58898323 131.36564133 48.35121072 112.97003534 30.2265625 97.63085938 C28.64453125 96.26367188 28.64453125 96.26367188 26.26953125 93.82617188 C23.74004282 91.39397147 23.07210678 91.8686811 20.54296875 94.20507812 Z M-73.29394531 227.64135742 C-75.47794041 227.83715139 -77.66267507 228.02258785 -79.84765625 228.20703125 C-83.68615243 228.53702463 -87.52280031 228.87035019 -91.35546875 229.26367188 C-92.60440918 229.38685791 -93.85334961 229.51004395 -95.14013672 229.63696289 C-98.89005432 230.36786938 -100.04729854 231.64338572 -102.21923828 234.71606445 C-102.63544434 235.3505249 -103.05165039 235.98498535 -103.48046875 236.63867188 C-103.94437012 237.30858154 -104.40827148 237.97849121 -104.88623047 238.66870117 C-105.88270113 240.1134015 -106.86956907 241.56476358 -107.84765625 243.02197266 C-109.32751984 245.2221196 -110.83622215 247.39917229 -112.35546875 249.57226562 C-150.53696733 304.42421933 -183.85526001 362.73493801 -212.41796875 423.13867188 C-212.76593506 423.87113129 -213.11390137 424.6035907 -213.47241211 425.35824585 C-214.45187277 427.42520625 -215.42288916 429.49588792 -216.390625 431.56835938 C-216.94113525 432.74382324 -217.49164551 433.91928711 -218.05883789 435.13037109 C-220.26581341 439.97374033 -220.26581341 439.97374033 -219.77125549 445.08612061 C-218.81918886 447.34433993 -217.77097125 449.53223359 -216.68359375 451.72851562 C-216.09352287 452.96066048 -216.09352287 452.96066048 -215.49153137 454.21769714 C-214.20958532 456.88556818 -212.90810188 459.5433486 -211.60546875 462.20117188 C-210.71833198 464.03451589 -209.83218497 465.86833916 -208.94702148 467.70263672 C-206.80488487 472.13213201 -204.64631718 476.55333063 -202.47943115 480.97076416 C-201.50468884 482.95925964 -200.53350209 484.94940674 -199.56494141 486.94091797 C-193.40106347 499.59519711 -186.81473502 511.9930563 -179.99169922 524.30322266 C-178.27001761 527.41827952 -176.56412128 530.54166189 -174.859375 533.66601562 C-158.19018474 564.09726439 -139.80927288 593.53630999 -120.35546875 622.26367188 C-119.6579248 623.29548584 -119.6579248 623.29548584 -118.94628906 624.34814453 C-116.20377062 628.40244107 -116.20377062 628.40244107 -113.39160156 632.40844727 C-111.05215105 635.68096152 -108.9937505 638.88195735 -107.20703125 642.49023438 C-104.47735057 647.63304962 -101.62231782 652.04864502 -95.97265625 654.14990234 C-89.0850692 655.69936132 -82.05152413 655.83377594 -75.02001953 656.06884766 C-69.97156698 656.25273392 -64.94848223 656.66405814 -59.9140625 657.07226562 C-3.75710943 661.42193655 53.82413194 661.40794984 109.96496582 656.84416199 C114.80548217 656.45366052 119.62734241 656.16281291 124.48153687 656.02104187 C138.05805191 656.08417952 138.05805191 656.08417952 149.62109375 650.04101562 C152.42269562 646.76713198 154.5083736 643.24534412 156.48828125 639.43017578 C157.96805115 636.65748192 159.70557079 634.12348634 161.49462891 631.54370117 C162.77134511 629.69855042 164.00560678 627.83107299 165.23046875 625.95117188 C166.80221306 623.54360859 168.38860091 621.14751828 169.99609375 618.76367188 C188.44458586 591.39582052 205.7168785 563.17033755 221.64453125 534.26367188 C222.432229 532.83474609 222.432229 532.83474609 223.23583984 531.37695312 C234.72434126 510.47227639 245.77761755 489.34155991 256.20703125 467.88867188 C256.7786499 466.71925049 257.35026855 465.5498291 257.93920898 464.3449707 C259.54988561 461.00254805 261.10062119 457.63735522 262.64453125 454.26367188 C263.19326904 453.15733398 263.74200684 452.05099609 264.30737305 450.91113281 C266.81537972 445.40739515 268.39862022 441.60025195 266.21875 435.76367188 C265.30213169 433.90710865 264.33666189 432.07412304 263.33203125 430.26367188 C262.56318604 428.74567993 262.56318604 428.74567993 261.77880859 427.19702148 C260.67290347 425.01386078 259.54954988 422.83946805 258.41064453 420.67333984 C256.3016804 416.60176215 254.33500066 412.471639 252.37606812 408.32629395 C241.89866055 386.16934157 230.57119035 364.49261412 218.35546875 343.24414062 C216.5681128 340.13055023 214.79341602 337.00995423 213.01953125 333.88867188 C183.53523941 279.0839615 183.53523941 279.0839615 145.64453125 230.26367188 C143.85600378 229.98587002 142.05775277 229.77039209 140.2578125 229.58007812 C139.10684082 229.45810059 137.95586914 229.33612305 136.77001953 229.21044922 C134.88259033 229.02023193 134.88259033 229.02023193 132.95703125 228.82617188 C131.66007324 228.6942041 130.36311523 228.56223633 129.02685547 228.42626953 C119.7853211 227.50446891 110.53658193 226.75898156 101.26953125 226.13867188 C100.14587158 226.06334229 99.02221191 225.9880127 97.86450195 225.91040039 C94.82703837 225.71824888 91.78926875 225.54124216 88.75012207 225.37796021 C87.29674507 225.29907307 85.84354405 225.21689882 84.39050293 225.13204956 C66.2259996 224.08951816 48.05992992 224.07613997 29.87207031 224.07836914 C26.41563607 224.07844971 22.95933634 224.0716027 19.50292969 224.05786133 C-11.48885589 223.9367744 -42.41356772 224.87239245 -73.29394531 227.64135742 Z M221.64453125 241.26367188 C223.20493661 245.76484119 225.64498221 249.51671704 228.26953125 253.45117188 C249.53914212 285.883379 268.42162508 319.67635493 286.41015625 354.01367188 C289.43957085 359.78996501 292.5356836 365.52980385 295.64453125 371.26367188 C297.35250021 368.70171844 298.21503558 366.92903662 299.16577148 364.07568359 C299.45082047 363.2257634 299.73586945 362.3758432 300.02955627 361.50016785 C300.48672279 360.11079765 300.48672279 360.11079765 300.953125 358.69335938 C301.27598984 357.72042435 301.59885468 356.74748932 301.9315033 355.74507141 C302.98890966 352.54526411 304.03677422 349.34246745 305.08203125 346.13867188 C305.43879944 345.04809479 305.79556763 343.9575177 306.16314697 342.83389282 C311.17136852 327.47483134 315.8526988 312.05998669 320.01953125 296.45117188 C320.24591278 295.60834656 320.47229431 294.76552124 320.70553589 293.89715576 C323.15041333 284.74368397 325.34310813 275.66373778 326.64453125 266.26367188 C274.98113334 249.0030698 274.98113334 249.0030698 221.64453125 241.26367188 Z M-183.7890625 242.62695312 C-184.55740921 242.77453568 -185.32575592 242.92211823 -186.11738586 243.07417297 C-203.91141861 246.51958916 -221.55056022 250.37419507 -239.10546875 254.88867188 C-239.97783173 255.11197174 -240.8501947 255.33527161 -241.74899292 255.56533813 C-254.38372631 258.81304208 -266.88414349 262.43848934 -279.35546875 266.26367188 C-277.93504043 276.47573804 -275.45786905 286.32216473 -272.79296875 296.26367188 C-272.56491547 297.12064667 -272.33686218 297.97762146 -272.10189819 298.86056519 C-265.5556758 323.31096168 -257.42394249 347.28234499 -249.35546875 371.26367188 C-247.01691732 368.21551459 -245.19519224 365.20781386 -243.45703125 361.77539062 C-242.90176758 360.68798584 -242.34650391 359.60058105 -241.77441406 358.48022461 C-241.18241211 357.31563721 -240.59041016 356.1510498 -239.98046875 354.95117188 C-233.89698012 343.0723704 -227.46227075 331.43099244 -220.82666016 319.85058594 C-219.02265074 316.67845123 -217.26184004 313.48393826 -215.50610352 310.28491211 C-203.29157764 288.04606817 -190.055084 266.07967854 -175.578125 245.24023438 C-174.18011366 243.36754933 -174.18011366 243.36754933 -174.35546875 241.26367188 C-177.55691501 241.26367188 -180.65460416 242.02404511 -183.7890625 242.62695312 Z M379.64453125 286.26367188 C377.68831461 291.74728867 376.08173621 297.26508315 374.65625 302.90820312 C364.32662065 343.74064061 351.54898731 384.00034232 335.5078125 422.97070312 C335.03182617 424.13126221 334.55583984 425.29182129 334.06542969 426.48754883 C333.19246464 428.59292589 332.3049561 430.69236337 331.39941406 432.78393555 C330.82658691 434.15062378 330.82658691 434.15062378 330.2421875 435.54492188 C329.90711182 436.31900391 329.57203613 437.09308594 329.22680664 437.890625 C327.84515419 443.52151046 330.4421424 448.71254123 332.56640625 453.86132812 C333.17971896 455.38115509 333.79274301 456.90109856 334.40551758 458.42114258 C334.72952545 459.21912262 335.05353333 460.01710266 335.38735962 460.83926392 C351.14298816 499.74305828 364.00680783 539.34451403 374.42260742 579.99194336 C374.62387741 580.77401657 374.8251474 581.55608978 375.03251648 582.36186218 C375.40764652 583.82241618 375.77985525 585.28372503 376.14851379 586.7459259 C377.07995662 590.37440643 378.15928185 593.82301024 379.64453125 597.26367188 C387.81268609 595.14055392 395.27084871 591.91198966 402.89453125 588.32617188 C403.50302917 588.0415509 404.1115271 587.75692993 404.73846436 587.46368408 C454.8404656 563.98954828 514.5409298 528.63061379 535.42919922 474.21972656 C543.74901975 451.16928361 543.71028664 427.42873972 533.58007812 404.89599609 C528.63329151 394.54201659 523.00012717 385.09038698 515.64453125 376.26367188 C515.16693359 375.68746094 514.68933594 375.11125 514.19726562 374.51757812 C508.63818654 367.83538142 503.04323303 361.16538711 496.64453125 355.26367188 C496.0928125 354.75320313 495.54109375 354.24273437 494.97265625 353.71679688 C492.89788532 351.85482297 490.78035635 350.0554486 488.64453125 348.26367188 C487.91097412 347.64347168 487.91097412 347.64347168 487.16259766 347.01074219 C461.37153022 325.33848883 431.59542787 309.24647934 401.33203125 294.76367188 C400.50348633 294.36664063 399.67494141 293.96960938 398.82128906 293.56054688 C389.57110152 288.57631879 389.57110152 288.57631879 379.64453125 286.26367188 Z M-339.203125 288.11523438 C-340.18796875 288.54779541 -341.1728125 288.98035645 -342.1875 289.42602539 C-343.25355469 289.90869873 -344.31960938 290.39137207 -345.41796875 290.88867188 C-347.07699219 291.63105103 -347.07699219 291.63105103 -348.76953125 292.38842773 C-378.4133345 305.79205551 -406.69561781 321.14989823 -432.35546875 341.26367188 C-433.66644531 342.28460938 -433.66644531 342.28460938 -435.00390625 343.32617188 C-463.3756818 365.95703096 -489.03831762 395.14442447 -493.93359375 432.41210938 C-496.89310046 459.43130956 -485.8522752 485.34581352 -469.35546875 506.26367188 C-459.72335766 518.21297183 -449.36598253 528.68294194 -437.35546875 538.26367188 C-436.24318553 539.1875228 -435.13257515 540.1133906 -434.0234375 541.04101562 C-406.76291345 563.64904681 -373.77357046 581.0810938 -341.16796875 594.76367188 C-340.49797852 595.04831299 -339.82798828 595.3329541 -339.13769531 595.6262207 C-335.33514874 597.15700132 -335.33514874 597.15700132 -331.35546875 596.26367188 C-330.52936202 593.888688 -329.91718259 591.65903116 -329.3671875 589.21679688 C-328.99470769 587.67676105 -328.62188763 586.1368075 -328.2487793 584.59692383 C-328.05359711 583.77149078 -327.85841492 582.94605774 -327.65731812 582.09561157 C-318.3248263 542.87374132 -305.68355392 504.30277239 -290.6171875 466.91210938 C-290.3109697 466.14906494 -290.00475189 465.38602051 -289.68925476 464.59985352 C-288.22419481 460.95379461 -286.74341484 457.31597234 -285.22827148 453.69042969 C-284.69995927 452.39469378 -284.17202469 451.09880382 -283.64453125 449.80273438 C-283.17740723 448.6807666 -282.7102832 447.55879883 -282.22900391 446.40283203 C-280.70119686 440.91246226 -282.41033697 436.69283163 -284.55078125 431.59179688 C-285.01162109 430.47490479 -285.47246094 429.3580127 -285.94726562 428.20727539 C-286.45322266 426.98838623 -286.95917969 425.76949707 -287.48046875 424.51367188 C-301.98603008 388.97113526 -314.79312885 352.42404608 -324.21484375 315.18945312 C-324.44491623 314.28026627 -324.67498871 313.37107941 -324.91203308 312.43434143 C-326.01739436 308.04017731 -327.0990065 303.64167314 -328.14770508 299.23364258 C-328.34225281 298.43609055 -328.53680054 297.63853851 -328.73724365 296.81681824 C-329.10144972 295.3230232 -329.45532603 293.82665913 -329.79718018 292.32759094 C-330.30510139 290.13418832 -330.30510139 290.13418832 -331.35546875 287.26367188 C-335.02759886 286.03962851 -335.74793716 286.58609441 -339.203125 288.11523438 Z M-249.35546875 513.26367188 C-256.87154853 534.41898921 -263.99404844 555.61933549 -269.98046875 577.26367188 C-270.22559204 578.14689117 -270.47071533 579.03011047 -270.7232666 579.94009399 C-273.19067168 588.86688897 -275.54346196 597.81682961 -277.69140625 606.82617188 C-277.86161285 607.53499512 -278.03181946 608.24381836 -278.20718384 608.97412109 C-278.86983779 611.81390409 -279.35546875 614.33588328 -279.35546875 617.26367188 C-251.52393143 625.37506789 -223.69922687 632.85976627 -195.29296875 638.70117188 C-194.41942749 638.88101624 -193.54588623 639.0608606 -192.64587402 639.24615479 C-190.16321064 639.75503569 -187.67956305 640.25869598 -185.1953125 640.75976562 C-184.44666428 640.91250443 -183.69801605 641.06524323 -182.92668152 641.22261047 C-180.0138266 641.8035011 -177.3342502 642.26367188 -174.35546875 642.26367188 C-175.95760656 637.60941678 -178.46351047 633.82916318 -181.16796875 629.76367188 C-201.39923543 598.88330724 -220.06206728 566.8252173 -236.83032227 533.93579102 C-240.42423806 526.91578936 -244.10403 519.9124558 -248.35546875 513.26367188 C-248.68546875 513.26367188 -249.01546875 513.26367188 -249.35546875 513.26367188 Z M295.64453125 513.26367188 C293.97494432 516.30374346 292.30908091 519.34583938 290.64453125 522.38867188 C289.84571533 523.84877686 289.84571533 523.84877686 289.03076172 525.33837891 C285.90958438 531.06009085 282.82124084 536.79746533 279.77734375 542.56054688 C271.42987933 558.35643888 262.79527601 573.91332506 253.64453125 589.26367188 C252.62856009 590.98221728 251.61292539 592.70096164 250.59765625 594.41992188 C241.73993716 609.3580384 232.60190771 624.17378778 222.72412109 638.4621582 C221.47318654 640.1995568 221.47318654 640.1995568 221.64453125 642.26367188 C232.8169081 640.87724364 243.72301354 638.69220869 254.70703125 636.26367188 C255.58750122 636.07036285 256.46797119 635.87705383 257.37512207 635.67788696 C270.63636628 632.75510206 283.79213383 629.5182496 296.89453125 625.95117188 C297.65259064 625.74484131 298.41065002 625.53851074 299.19168091 625.32592773 C308.39735211 622.80821469 317.54101663 620.13094386 326.64453125 617.26367188 C325.16449841 608.13942042 323.00937234 599.20854397 320.70703125 590.26367188 C320.51400421 589.51122192 320.32097717 588.75877197 320.12210083 587.98352051 C313.5990392 562.68705236 305.48674214 537.83907963 296.64453125 513.26367188 C296.31453125 513.26367188 295.98453125 513.26367188 295.64453125 513.26367188 Z M-289.35546875 672.26367188 C-291.37074935 680.86159881 -292.24187737 689.54414305 -292.98046875 698.32617188 C-293.04550598 699.09745422 -293.11054321 699.86873657 -293.17755127 700.66339111 C-296.26205978 738.36816953 -295.4923222 776.40453828 -286.35546875 813.26367188 C-286.16227051 814.05016113 -285.96907227 814.83665039 -285.77001953 815.64697266 C-280.47433053 836.62446942 -270.86851199 857.12135781 -256.35546875 873.26367188 C-255.34419922 874.41609375 -255.34419922 874.41609375 -254.3125 875.59179688 C-238.8095069 892.22915532 -216.67189818 901.09231088 -194.16625977 902.38989258 C-129.254384 904.59492233 -68.66349972 867.02407187 -19.35546875 828.26367188 C-22.61472896 824.08774473 -26.06729535 820.69839844 -30.08935547 817.26318359 C-34.55858813 813.31974301 -38.71402117 809.04812351 -42.91796875 804.82617188 C-44.27825195 803.47168945 -44.27825195 803.47168945 -45.66601562 802.08984375 C-50.22903483 797.52020668 -54.66943471 792.90835194 -58.84936523 787.98413086 C-60.44555591 786.1607631 -62.12551501 784.45995317 -63.85546875 782.76367188 C-66.891418 779.77494851 -69.70055534 776.64660709 -72.48046875 773.41992188 C-74.52905969 771.0640423 -76.62749877 768.75859727 -78.73046875 766.45117188 C-82.60580618 762.15758555 -86.27768185 757.73279186 -89.9140625 753.23632812 C-92.63266825 749.92615377 -95.42642092 746.68881688 -98.23046875 743.45117188 C-103.67708455 737.14111033 -108.85294232 730.65049068 -113.95703125 724.06201172 C-115.43577867 722.16039624 -116.92535018 720.26769754 -118.41796875 718.37695312 C-119.17098267 717.42272461 -119.17098267 717.42272461 -119.93920898 716.44921875 C-120.90173437 715.23005171 -121.86476174 714.01128076 -122.82836914 712.79296875 C-124.76793944 710.33052638 -126.61548704 707.87364444 -128.35546875 705.26367188 C-131.31519835 704.59383632 -134.13735159 704.11090315 -137.13671875 703.72070312 C-138.04025085 703.59158539 -138.94378296 703.46246765 -139.87469482 703.32943726 C-141.83618976 703.0493337 -143.79845326 702.77457278 -145.76135254 702.50448608 C-151.03232362 701.77483288 -156.29536839 700.99228963 -161.55859375 700.20898438 C-162.63542419 700.04909531 -163.71225464 699.88920624 -164.82171631 699.72447205 C-205.11478714 693.67839045 -245.13835409 684.72838414 -284.11108398 672.83935547 C-286.45361694 672.13944364 -286.45361694 672.13944364 -289.35546875 672.26367188 Z M327.55078125 674.16992188 C326.04868852 674.58452604 324.54648614 674.99873312 323.04418945 675.41259766 C322.24727692 675.63272522 321.45036438 675.85285278 320.62930298 676.07965088 C295.07302242 683.11491786 269.42106678 689.28909954 243.39453125 694.32617188 C242.53163483 694.49462616 241.6687384 694.66308044 240.7796936 694.8366394 C230.25300362 696.87621388 219.74135652 698.56260408 209.09765625 699.86523438 C206.99892491 700.13522153 204.90029105 700.4059676 202.80175781 700.67749023 C198.78688673 701.1960692 194.77322214 701.63834576 190.74511719 702.03930664 C179.56421237 703.22660529 179.56421237 703.22660529 170.92127991 709.82038879 C168.97103087 712.54277268 167.30684651 715.35495325 165.64453125 718.26367188 C164.67405657 719.57667576 163.68078176 720.87373487 162.6484375 722.13867188 C161.84277344 723.16992188 161.03710938 724.20117188 160.20703125 725.26367188 C155.69388135 731.01789758 151.01608014 736.61492943 146.265625 742.17382812 C143.82149791 745.03944882 141.44757391 747.9577271 139.08203125 750.88867188 C135.20523356 755.65317995 131.12981593 760.20011077 126.97265625 764.72070312 C125.03758863 766.83434242 123.14244828 768.97027036 121.26953125 771.13867188 C116.74159115 776.34053794 112.0413429 781.38411289 107.34521484 786.43359375 C106.1982029 787.66787476 105.05272773 788.90358544 103.90869141 790.140625 C96.61859811 798.02202364 89.22272342 805.78313956 81.64453125 813.38867188 C80.95077393 814.08702148 80.2570166 814.78537109 79.54223633 815.50488281 C75.39923144 819.63538618 71.13333631 823.5113114 66.64453125 827.26367188 C70.47389726 831.29110854 74.5585705 834.64537315 79.01953125 837.95117188 C79.72795166 838.47735107 80.43637207 839.00353027 81.16625977 839.5456543 C127.9345945 874.01667114 190.14809475 909.69070409 250.6574707 901.49462891 C270.65718771 898.31231008 287.29754222 889.6106609 301.64453125 875.26367188 C302.32902344 874.57917969 303.01351562 873.8946875 303.71875 873.18945312 C336.16093147 838.70768461 341.84791269 784.57012699 341.89453125 739.57617188 C341.896203 738.71682037 341.89787476 737.85746887 341.89959717 736.97207642 C341.90106361 724.24497325 341.39298057 711.62855008 340.26953125 698.95117188 C340.20640747 698.23063629 340.14328369 697.51010071 340.07824707 696.76773071 C339.33758124 688.51969782 338.30931514 680.3813633 336.64453125 672.26367188 C333.49427981 672.26367188 330.56562421 673.32636609 327.55078125 674.16992188 Z M-50.35546875 713.26367188 C-48.17990731 717.18392058 -45.65861884 720.30019872 -42.60546875 723.57617188 C-39.6698698 726.75322701 -36.74606179 729.92797945 -33.91796875 733.20117188 C-29.1710308 738.65299156 -24.26448751 743.95828201 -19.35546875 749.26367188 C-18.79827148 749.86743652 -18.24107422 750.47120117 -17.66699219 751.09326172 C-10.38512151 758.97217294 -2.99076244 766.72586198 4.58203125 774.32617188 C5.2673291 775.01606201 5.95262695 775.70595215 6.65869141 776.41674805 C14.83197855 784.94324959 14.83197855 784.94324959 24.64453125 791.26367188 C25.20140625 790.69519531 25.75828125 790.12671875 26.33203125 789.54101562 C27.09515625 788.76886719 27.85828125 787.99671875 28.64453125 787.20117188 C29.38703125 786.44707031 30.12953125 785.69296875 30.89453125 784.91601562 C33.00731378 782.87826088 35.13689894 780.95629017 37.359375 779.04492188 C42.19028854 774.85144415 46.69609473 770.35870905 51.20703125 765.82617188 C52.01849609 765.01857422 52.82996094 764.21097656 53.66601562 763.37890625 C57.98029829 759.05765945 62.14515748 754.67005585 66.10327148 750.01928711 C67.71292353 748.18576773 69.40275174 746.47146918 71.14453125 744.76367188 C74.17787153 741.77751688 76.98516821 738.65251729 79.76171875 735.42773438 C81.8520273 733.02518057 83.99693604 730.67760663 86.14453125 728.32617188 C93.3665596 721.46420583 93.3665596 721.46420583 97.64453125 713.26367188 C88.20878535 713.14572505 78.80147528 713.27084295 69.37109375 713.62182617 C37.68593375 714.7887302 5.95964333 714.66549096 -25.72265625 713.48632812 C-33.93527141 713.18672628 -42.13899468 713.16096595 -50.35546875 713.26367188 Z " fill="#077DA4" transform="translate(576.35546875,110.736328125)"/>
<path d="M0 0 C22.94562754 19.89418816 37.27201749 46.3097473 39.72705078 76.71655273 C41.10779598 99.54097287 36.2255309 120.71994273 24.99609375 140.59765625 C24.44050781 141.59410156 23.88492188 142.59054687 23.3125 143.6171875 C8.49534145 168.45458276 -16.80338719 184.98083375 -44.39501953 192.08862305 C-72.81776379 199.065884 -101.56624612 193.6887036 -126.8203125 179.5625 C-153.09687021 163.34518892 -169.94678749 138.54654382 -177.71484375 108.8828125 C-183.51963578 81.58346448 -178.61945487 53.69912911 -165.00390625 29.59765625 C-164.44832031 28.60121094 -163.89273437 27.60476563 -163.3203125 26.578125 C-148.51122183 1.75425359 -123.25088133 -14.72002377 -95.70068359 -21.89331055 C-62.54798753 -30.06644478 -26.2969146 -21.6489526 0 0 Z " fill="#077DA4" transform="translate(670.00390625,467.40234375)"/>
</svg>
